<svg xmlns="http://www.w3.org/2000/svg" xmlns:xlink="http://www.w3.org/1999/xlink" width="200" height="60" viewBox="0 0 200 60">
  <defs>
    <linearGradient id="linear-gradient" x1="0.015" y1="0.5" x2="0.957" y2="0.585" gradientUnits="objectBoundingBox">
      <stop offset="0" stop-color="#fff"/>
      <stop offset="1" stop-color="gray"/>
    </linearGradient>
    <clipPath id="clip-path">
      <path id="사각형" d="M16,0H200V60H0V16Z" transform="translate(57.721 -8.35)" fill="url(#linear-gradient)"/>
    </clipPath>
    <linearGradient id="linear-gradient-2" x1="0.733" y1="0.5" x2="0.218" y2="0.5" gradientUnits="objectBoundingBox">
      <stop offset="0" stop-color="#30b890"/>
      <stop offset="1" stop-color="#2868b2"/>
    </linearGradient>
  </defs>
  <g id="패턴" transform="translate(-57.721 8.35)" opacity="0.6" clip-path="url(#clip-path)">
    <path id="합치기_1" data-name="합치기 1" d="M13678.427,4445.294l1.881-.332-.824-4.671,2.543-.449c.037-.006.072-.016.105-.021l3.34,4.232,2.141-.379-3.627-4.527c.109-.063.22-.123.323-.195a3.255,3.255,0,0,0,1.206-1.586,4.094,4.094,0,0,0,.129-2.106,4.2,4.2,0,0,0-.841-1.95,3.325,3.325,0,0,0-1.683-1.106,5.3,5.3,0,0,0-2.449-.069l-4.426.78,2.182,12.38m3.052-11.588a3.493,3.493,0,0,1,.795.092,1.816,1.816,0,0,1,.984.627,2.617,2.617,0,0,1,.482,1.169,2.5,2.5,0,0,1-.053,1.248,1.731,1.731,0,0,1-.708.9,3.7,3.7,0,0,1-1.43.517l-2.352.414-.787-4.473,2.345-.414a3.474,3.474,0,0,1,.723-.076m-320.915,10.773,1.881-.332-.824-4.675,2.542-.448c.035,0,.069-.013.107-.019l3.338,4.229,2.142-.376-3.627-4.527c.109-.063.216-.123.319-.194a3.294,3.294,0,0,0,1.207-1.589,4.148,4.148,0,0,0,.132-2.107,4.246,4.246,0,0,0-.84-1.95,3.323,3.323,0,0,0-1.685-1.1,5.254,5.254,0,0,0-2.451-.072l-4.424.78,2.183,12.384m3.057-11.59a3.483,3.483,0,0,1,.79.09,1.845,1.845,0,0,1,.981.627,2.552,2.552,0,0,1,.482,1.169,2.493,2.493,0,0,1-.05,1.251,1.741,1.741,0,0,1-.709.893,3.645,3.645,0,0,1-1.43.518l-2.352.417-.79-4.474,2.349-.417a3.614,3.614,0,0,1,.728-.075m324.56,10.687,1.994-.354.555-3.47,4.825-.85,1.709,3.073,1.994-.351-6.634-11.6-2.179.382-2.265,13.167m3.8-11.1,2.753,4.95-3.737.658.888-5.593.1-.016m-321.663,10.286,1.994-.351.555-3.474,4.821-.85,1.709,3.072,2-.351-6.634-11.6-2.179.386-2.264,13.164m3.8-11.1,2.751,4.95-3.737.659.89-5.593.1-.016m326.62,9.706,1.882-.332-.95-5.39,5.255-.928-.286-1.608-5.251.925-.665-3.759,5.807-1.022-.289-1.621-7.683,1.354,2.181,12.38m215.282-.05,1.877-.33-.821-4.674,2.543-.449c.035,0,.069-.016.1-.019l3.339,4.229,2.141-.376-3.624-4.527c.107-.063.217-.125.32-.195a3.28,3.28,0,0,0,1.207-1.589,4.1,4.1,0,0,0,.128-2.107,4.192,4.192,0,0,0-.837-1.95,3.329,3.329,0,0,0-1.687-1.1,5.268,5.268,0,0,0-2.448-.072l-4.427.781,2.186,12.38m3.054-11.586a3.483,3.483,0,0,1,.79.09,1.838,1.838,0,0,1,.984.627,2.63,2.63,0,0,1,.482,1.17,2.548,2.548,0,0,1-.051,1.25,1.748,1.748,0,0,1-.708.894,3.716,3.716,0,0,1-1.43.517l-2.351.414-.79-4.473,2.345-.414a3.607,3.607,0,0,1,.728-.074m-536.2,10.821,1.881-.332-.949-5.393,5.251-.925-.282-1.611-5.255.928-.661-3.759,5.8-1.025-.284-1.621-7.685,1.357,2.182,12.38m215.278-.05,1.882-.332-.825-4.671,2.543-.448c.037-.006.072-.016.106-.022l3.339,4.232,2.142-.379-3.628-4.527c.109-.062.22-.122.323-.194a3.3,3.3,0,0,0,1.206-1.586,4.118,4.118,0,0,0,.13-2.107,4.22,4.22,0,0,0-.841-1.95,3.349,3.349,0,0,0-1.684-1.106,5.3,5.3,0,0,0-2.448-.069l-4.427.781,2.182,12.38m3.052-11.588a3.514,3.514,0,0,1,.795.092,1.816,1.816,0,0,1,.984.627,2.592,2.592,0,0,1,.482,1.169,2.512,2.512,0,0,1-.053,1.248,1.725,1.725,0,0,1-.708.9,3.71,3.71,0,0,1-1.428.518l-2.354.414-.787-4.474,2.345-.414a3.481,3.481,0,0,1,.723-.076m109.218,10.748,1.881-.333-.949-5.392,5.254-.925-.285-1.612-5.251.925-.665-3.759,5.807-1.022-.289-1.621-7.684,1.354,2.182,12.384m215.348-.063,2-.351.552-3.474,4.824-.85,1.709,3.072,1.994-.351-6.634-11.6-2.179.386-2.264,13.164m3.8-11.1,2.753,4.951-3.737.658.891-5.592.094-.016m-537.011,10.349,1.882-.333-.95-5.393,5.251-.924-.282-1.612-5.254.928-.662-3.759,5.8-1.025-.285-1.618-7.684,1.354,2.181,12.38m215.348-.06,1.994-.354.555-3.471,4.825-.849,1.705,3.072,2-.351-6.634-11.6-2.18.383-2.264,13.167m3.8-11.107,2.753,4.95-3.737.662.887-5.593.1-.019m108.4,10.277,7.483-1.32-.285-1.621-5.6.987-1.9-10.759-1.878.333,2.182,12.38m218.219-.567,1.882-.333-.953-5.392,5.254-.925-.285-1.611-5.251.925-.665-3.756,5.807-1.025-.289-1.621-7.684,1.354,2.185,12.383m-536.082-.251,7.483-1.317-.288-1.621-5.6.987-1.9-10.762-1.882.332,2.186,12.38m218.215-.567,1.882-.33-.95-5.4,5.251-.924-.282-1.612-5.254.928-.662-3.758,5.8-1.022-.285-1.621-7.685,1.354,2.182,12.381m215.281-.051,1.882-.329-.824-4.675,2.542-.448.1-.022,3.343,4.232,2.138-.376-3.624-4.527c.105-.066.216-.125.319-.194a3.282,3.282,0,0,0,1.207-1.589,4.117,4.117,0,0,0,.129-2.107,4.179,4.179,0,0,0-.838-1.95,3.328,3.328,0,0,0-1.687-1.1,5.262,5.262,0,0,0-2.448-.072l-4.423.78,2.181,12.38m3.053-11.588a3.527,3.527,0,0,1,.795.092,1.842,1.842,0,0,1,.981.627,2.554,2.554,0,0,1,.482,1.169,2.527,2.527,0,0,1-.05,1.251,1.749,1.749,0,0,1-.709.894,3.7,3.7,0,0,1-1.43.517l-2.351.414-.79-4.474,2.348-.414a3.467,3.467,0,0,1,.723-.076m-109.378,11.381,7.845-1.382-.289-1.618-5.959,1.05-.665-3.771,5.483-.969-.282-1.611-5.487.969-.661-3.759,5.895-1.038-.286-1.621-7.774,1.37,2.182,12.38m-211.541-.608,1.881-.332-.824-4.671,2.543-.448c.037-.006.071-.016.106-.022l3.339,4.232,2.142-.379-3.628-4.527c.11-.063.22-.123.322-.195a3.309,3.309,0,0,0,1.208-1.586,4.115,4.115,0,0,0,.129-2.106,4.224,4.224,0,0,0-.841-1.95,3.308,3.308,0,0,0-1.684-1.106,5.3,5.3,0,0,0-2.452-.069l-4.424.78,2.183,12.38m3.058-11.589a3.4,3.4,0,0,1,.789.093,1.821,1.821,0,0,1,.984.627,2.616,2.616,0,0,1,.483,1.169,2.512,2.512,0,0,1-.054,1.248,1.731,1.731,0,0,1-.708.9,3.713,3.713,0,0,1-1.43.517l-2.352.414-.79-4.474,2.348-.414a3.49,3.49,0,0,1,.729-.077m427.079,11.563,1.881-.332-.953-5.392,5.255-.925-.286-1.611-5.251.928-.665-3.759,5.807-1.025-.285-1.618-7.687,1.354,2.185,12.38m-536.459-.182,7.841-1.382-.286-1.621-5.959,1.05-.665-3.772,5.483-.966-.285-1.611-5.482.966-.662-3.756,5.894-1.041-.284-1.621-7.775,1.37,2.182,12.383m218.592-.633,1.881-.332-.949-5.393,5.251-.928-.282-1.608-5.255.924-.661-3.756,5.8-1.025-.284-1.621-7.685,1.354,2.182,12.383m215.348-.062,2-.351.551-3.474,4.826-.85,1.708,3.072,1.994-.351-6.631-11.6-2.179.386-2.267,13.164m3.8-11.1,2.749,4.95-3.737.659.891-5.593.1-.016m-321.667,10.287,1.994-.352.556-3.47,4.824-.853,1.705,3.076,2-.354-6.634-11.6-2.179.385-2.264,13.165m3.8-11.1,2.752,4.95-3.736.661.887-5.593.1-.019m426.268,11.092,7.483-1.32-.286-1.618-5.6.987-1.9-10.763-1.881.333,2.183,12.38m-317.864-.815,7.483-1.32-.285-1.621-5.6.987-1.9-10.76-1.879.333,2.183,12.38m218.219-.567,1.882-.333-.95-5.393,5.251-.925-.285-1.611-5.251.925-.665-3.756,5.807-1.025-.286-1.621-7.684,1.354,2.182,12.384m108.956-.258,7.841-1.382-.285-1.621-5.963,1.05-.665-3.771,5.483-.966-.281-1.611-5.484.965-.665-3.755,5.895-1.041-.285-1.621-7.774,1.37,2.185,12.383m-426.822-.561,1.881-.332-.95-5.389,5.252-.928-.282-1.611-5.255.928-.661-3.759,5.8-1.022-.285-1.621-7.685,1.354,2.183,12.38m215.281-.05,1.878-.33-.821-4.674,2.543-.449.1-.022,3.339,4.232,2.142-.376-3.628-4.53c.11-.062.22-.122.323-.191a3.285,3.285,0,0,0,1.207-1.589,4.1,4.1,0,0,0,.129-2.106,4.246,4.246,0,0,0-.838-1.95,3.329,3.329,0,0,0-1.687-1.1,5.28,5.28,0,0,0-2.448-.072l-4.427.781,2.186,12.38m3.048-11.588a3.487,3.487,0,0,1,.795.092,1.834,1.834,0,0,1,.984.626,2.609,2.609,0,0,1,.483,1.17,2.562,2.562,0,0,1-.05,1.251,1.771,1.771,0,0,1-.708.893,3.728,3.728,0,0,1-1.43.517l-2.355.414-.786-4.474,2.345-.414a3.464,3.464,0,0,1,.722-.076M13649.14,4431.5l7.844-1.382-.289-1.618-5.959,1.05-.665-3.771,5.483-.969-.286-1.608-5.482.965-.661-3.759,5.894-1.038-.285-1.621-7.775,1.37,2.183,12.38m-211.542-.608,1.881-.333-.824-4.671,2.542-.448c.039-.006.072-.016.107-.022l3.338,4.232,2.142-.379-3.627-4.527c.11-.062.22-.122.322-.194a3.265,3.265,0,0,0,1.2-1.586,4.11,4.11,0,0,0,.132-2.107,4.242,4.242,0,0,0-.84-1.953,3.318,3.318,0,0,0-1.684-1.1,5.3,5.3,0,0,0-2.452-.069l-4.423.781,2.182,12.381m3.058-11.589a3.4,3.4,0,0,1,.79.093,1.8,1.8,0,0,1,.984.627,2.614,2.614,0,0,1,.482,1.169,2.559,2.559,0,0,1-.054,1.248,1.75,1.75,0,0,1-.709.9,3.7,3.7,0,0,1-1.43.517l-2.351.414-.787-4.474,2.346-.414a3.488,3.488,0,0,1,.728-.077m427.079,11.564,1.881-.333-.949-5.392,5.251-.925-.286-1.612-5.251.928-.665-3.759,5.807-1.025-.285-1.621-7.685,1.357,2.183,12.38m-317.866-.818,1.881-.329-.95-5.392,5.251-.928-.282-1.608-5.254.925-.661-3.759,5.8-1.022-.286-1.621-7.684,1.354,2.183,12.38m215.346-.06,1.994-.351.556-3.474,4.825-.85,1.708,3.073,1.994-.351-6.634-11.6-2.179.383-2.265,13.167m3.8-11.1,2.753,4.951-3.737.658.89-5.592.095-.016m-321.663,10.286,1.994-.351.555-3.471,4.821-.852,1.709,3.075,2-.351-6.634-11.6-2.179.383-2.263,13.164m3.8-11.1,2.753,4.95-3.74.662.891-5.592.1-.02m426.271,11.092,7.48-1.32-.286-1.618-5.6.988-1.9-10.763-1.881.333,2.186,12.38m-317.867-.815,7.483-1.32-.285-1.621-5.6.987-1.9-10.759-1.878.333,2.182,12.38m218.219-.57,1.879-.33-.951-5.392,5.255-.928-.285-1.608-5.252.925-.664-3.759,5.8-1.022-.286-1.621-7.684,1.354,2.185,12.38m108.956-.257,7.841-1.379-.285-1.621-5.959,1.05-.669-3.772,5.486-.969-.285-1.608-5.483.966-.661-3.756,5.891-1.041-.285-1.621-7.771,1.371,2.182,12.38m-426.822-.558,1.881-.333-.949-5.393,5.251-.924-.282-1.612-5.255.928-.661-3.759,5.8-1.022-.285-1.621-7.685,1.354,2.183,12.38m215.277-.05,1.885-.332-.828-4.672,2.543-.448c.038-.006.072-.016.106-.021l3.339,4.232,2.142-.376-3.628-4.53c.11-.063.22-.123.323-.194a3.267,3.267,0,0,0,1.207-1.586,4.107,4.107,0,0,0,.129-2.107,4.249,4.249,0,0,0-.837-1.95,3.356,3.356,0,0,0-1.687-1.106,5.3,5.3,0,0,0-2.449-.069l-4.426.78,2.181,12.381m3.053-11.588a3.527,3.527,0,0,1,.795.091,1.84,1.84,0,0,1,.984.627,2.615,2.615,0,0,1,.482,1.169,2.5,2.5,0,0,1-.054,1.248,1.736,1.736,0,0,1-.705.9,3.712,3.712,0,0,1-1.433.517l-2.351.414-.788-4.474,2.346-.414a3.466,3.466,0,0,1,.723-.076m-109.374,11.381,7.84-1.383-.284-1.621-5.961,1.054-.664-3.775,5.483-.966-.286-1.611-5.482.969-.661-3.759,5.894-1.038-.285-1.621-7.775,1.37,2.183,12.38m-211.542-.608,1.881-.332-.823-4.671,2.542-.448.106-.022,3.339,4.232,2.141-.379-3.627-4.527c.109-.063.22-.123.323-.194a3.294,3.294,0,0,0,1.2-1.586,4.109,4.109,0,0,0,.131-2.107,4.212,4.212,0,0,0-.84-1.95,3.308,3.308,0,0,0-1.684-1.106,5.306,5.306,0,0,0-2.451-.069l-4.424.78,2.182,12.38m3.058-11.589a3.384,3.384,0,0,1,.789.093,1.791,1.791,0,0,1,.981.627,2.529,2.529,0,0,1,.482,1.169,2.48,2.48,0,0,1-.05,1.248,1.731,1.731,0,0,1-.709.893,3.653,3.653,0,0,1-1.429.521l-2.352.414-.79-4.474,2.349-.414a3.488,3.488,0,0,1,.728-.077m427.079,11.564,1.878-.332-.95-5.393,5.254-.925-.284-1.611-5.252.924-.664-3.755,5.806-1.025-.285-1.621-7.687,1.357,2.186,12.38m-317.867-.815,1.882-.332-.95-5.393,5.251-.928-.282-1.608-5.254.924-.662-3.759,5.8-1.022-.286-1.621-7.684,1.354,2.182,12.383m215.348-.062,1.994-.354.555-3.471,4.825-.85,1.708,3.072,1.994-.351-6.634-11.6-2.179.383-2.264,13.167m3.8-11.1,2.753,4.95-3.737.659.891-5.593.094-.016m-321.663,10.286,1.993-.351.555-3.471,4.822-.853,1.709,3.076,2-.354-6.634-11.6-2.179.385-2.263,13.165m3.8-11.1,2.749,4.95-3.736.658.891-5.59.1-.019m426.268,11.092,7.484-1.32-.286-1.618-5.6.987-1.9-10.763-1.881.333,2.181,12.38m-317.862-.815,7.482-1.32-.285-1.621-5.6.987-1.9-10.759-1.882.329,2.187,12.384m218.218-.567,1.879-.333-.95-5.393,5.254-.928-.285-1.608-5.252.925-.664-3.759,5.806-1.022-.288-1.621-7.684,1.354,2.185,12.384m215.278-.05,1.882-.333-.825-4.674,2.543-.448c.034,0,.068-.013.1-.019l3.338,4.232,2.142-.379-3.624-4.527c.106-.063.216-.122.319-.194a3.3,3.3,0,0,0,1.208-1.586,4.109,4.109,0,0,0,.128-2.107,4.239,4.239,0,0,0-.837-1.953,3.333,3.333,0,0,0-1.687-1.1,5.262,5.262,0,0,0-2.448-.069l-4.427.777,2.185,12.384m3.06-11.589a3.432,3.432,0,0,1,.784.09,1.824,1.824,0,0,1,.985.63,2.932,2.932,0,0,1,.432,2.417,1.754,1.754,0,0,1-.708.893,3.622,3.622,0,0,1-1.43.518l-2.352.417-.79-4.474,2.346-.414a3.488,3.488,0,0,1,.732-.077m-109.381,11.382,7.84-1.386-.285-1.618-5.963,1.05-.664-3.771,5.482-.969-.282-1.608-5.482.965-.665-3.759,5.895-1.038-.286-1.621-7.775,1.37,2.187,12.384m-426.823-.562,1.881-.332-.95-5.392,5.251-.925-.281-1.611-5.255.928-.661-3.759,5.8-1.022-.285-1.621-7.685,1.354,2.183,12.38m215.277-.05,1.882-.33-.824-4.674,2.543-.448c.037-.007.071-.016.105-.022l3.34,4.232,2.141-.376-3.627-4.527c.109-.066.22-.125.322-.2a3.255,3.255,0,0,0,1.207-1.586,4.1,4.1,0,0,0,.129-2.106,4.2,4.2,0,0,0-.841-1.95,3.311,3.311,0,0,0-1.683-1.1,5.278,5.278,0,0,0-2.449-.072l-4.427.781,2.182,12.38m3.053-11.588a3.5,3.5,0,0,1,.795.092,1.838,1.838,0,0,1,.984.626,2.63,2.63,0,0,1,.482,1.17,2.539,2.539,0,0,1-.053,1.251,1.738,1.738,0,0,1-.709.893,3.712,3.712,0,0,1-1.427.518l-2.354.414-.788-4.474,2.346-.414a3.474,3.474,0,0,1,.723-.076m-109.375,11.381,7.842-1.382-.286-1.621-5.96,1.053-.664-3.774,5.483-.966-.285-1.611-5.483.969-.662-3.759,5.895-1.041-.285-1.621-7.774,1.374,2.181,12.38m218.6-.633,1.878-.333-.949-5.392,5.253-.925-.284-1.611-5.252.925-.664-3.756,5.806-1.025-.288-1.621-7.685,1.357,2.186,12.38m215.345-.063,2-.351.552-3.47,4.825-.853,1.708,3.072,1.994-.351-6.634-11.6-2.179.386-2.263,13.164m3.8-11.1,2.749,4.95-3.737.658.891-5.593.1-.016m-537.015,10.349,1.882-.33-.95-5.392,5.251-.928-.282-1.609-5.254.925-.662-3.758,5.8-1.022-.286-1.621-7.684,1.354,2.182,12.381m215.348-.06,1.994-.351.555-3.474,4.824-.85,1.71,3.073,1.993-.351-6.634-11.6-2.18.383-2.263,13.167m3.8-11.1,2.752,4.951-3.736.658.891-5.593.094-.016m108.4,10.273,7.482-1.32-.284-1.618-5.6.988-1.9-10.763-1.878.333,2.183,12.38m218.219-.567,1.881-.333-.953-5.392,5.254-.925-.284-1.612-5.252.928-.664-3.759,5.806-1.025-.285-1.618-7.687,1.354,2.186,12.38m-536.083-.248,7.483-1.32-.285-1.621-5.605.987-1.9-10.759-1.881.329,2.186,12.383m218.22-.567,1.877-.333-.949-5.392,5.254-.928-.285-1.608-5.251.925-.665-3.759,5.8-1.022-.285-1.621-7.685,1.354,2.187,12.383m215.277-.05,1.882-.332-.825-4.674,2.543-.449a1.024,1.024,0,0,0,.1-.019l3.34,4.232,2.141-.379-3.624-4.527c.106-.062.217-.123.32-.194a3.286,3.286,0,0,0,1.206-1.586,4.107,4.107,0,0,0,.129-2.11,4.234,4.234,0,0,0-.837-1.95,3.329,3.329,0,0,0-1.687-1.1,5.264,5.264,0,0,0-2.449-.069l-4.426.781,2.185,12.38m3.06-11.589a3.453,3.453,0,0,1,.784.09,1.835,1.835,0,0,1,.984.627,2.616,2.616,0,0,1,.483,1.172,2.563,2.563,0,0,1-.051,1.248,1.75,1.75,0,0,1-.708.894,3.628,3.628,0,0,1-1.43.517l-2.351.417-.791-4.477,2.346-.411a3.534,3.534,0,0,1,.732-.077m-109.382,11.379,7.841-1.382-.285-1.618-5.963,1.05-.664-3.772,5.482-.969-.282-1.608-5.482.966-.665-3.759,5.895-1.038-.286-1.621-7.774,1.37,2.185,12.38m-211.544-.608,1.881-.332-.824-4.672,2.542-.448c.038-.006.072-.016.107-.021l3.338,4.232,2.141-.376-3.626-4.53c.109-.063.22-.122.322-.194a3.272,3.272,0,0,0,1.207-1.586,4.106,4.106,0,0,0,.128-2.107,4.221,4.221,0,0,0-.839-1.95,3.341,3.341,0,0,0-1.685-1.106,5.3,5.3,0,0,0-2.447-.069l-4.428.781,2.183,12.38m3.052-11.588a3.527,3.527,0,0,1,.795.091,1.82,1.82,0,0,1,.984.627,2.617,2.617,0,0,1,.482,1.169,2.514,2.514,0,0,1-.053,1.248,1.734,1.734,0,0,1-.709.9,3.691,3.691,0,0,1-1.43.517l-2.352.414-.786-4.474,2.345-.414a3.466,3.466,0,0,1,.723-.076m427.085,11.563,1.88-.332-.952-5.389,5.254-.928-.285-1.608-5.252.925-.664-3.759,5.806-1.021-.284-1.621-7.687,1.354,2.186,12.38m-536.46-.181,7.842-1.383-.286-1.621-5.959,1.054-.665-3.775,5.483-.965-.285-1.612-5.483.969-.662-3.759,5.895-1.038-.286-1.621-7.774,1.37,2.182,12.381m218.6-.634,1.878-.332-.949-5.393,5.254-.925-.285-1.611-5.251.924-.665-3.755,5.807-1.025-.289-1.621-7.685,1.358,2.186,12.38m215.344-.062,2-.351.552-3.471,4.825-.853,1.709,3.073,1.993-.351-6.634-11.6-2.179.385-2.264,13.165m3.8-11.1,2.749,4.95-3.737.658.891-5.59.1-.019m-321.667,10.289,1.994-.354.555-3.471,4.824-.85,1.709,3.072,1.994-.351-6.634-11.6-2.179.382-2.264,13.167m3.8-11.107,2.752,4.954-3.736.658.887-5.593.1-.019m426.268,11.1,7.483-1.32-.285-1.621-5.6.988-1.9-10.76-1.881.329,2.182,12.384m-317.863-.818,7.482-1.32-.284-1.618-5.6.987-1.9-10.763-1.878.333,2.183,12.38m218.219-.567,1.881-.333-.953-5.392,5.255-.925-.286-1.611-5.251.925-.664-3.756,5.806-1.025-.289-1.621-7.684,1.357,2.186,12.38m108.956-.257,7.84-1.382-.284-1.621-5.964,1.053-.664-3.774,5.482-.965-.281-1.611-5.483.968-.661-3.759,5.891-1.041-.285-1.621-7.775,1.373,2.186,12.38m-426.823-.561,1.881-.329-.949-5.393,5.251-.928-.282-1.611-5.255.928-.661-3.759,5.8-1.022-.284-1.621-7.685,1.354,2.182,12.38m215.281-.047,1.879-.333-.822-4.674,2.542-.448c.035,0,.07-.013.1-.019l3.339,4.229,2.141-.375-3.623-4.527c.105-.063.216-.122.319-.194a3.282,3.282,0,0,0,1.206-1.589,4.105,4.105,0,0,0,.129-2.107,4.219,4.219,0,0,0-.837-1.95,3.329,3.329,0,0,0-1.687-1.1,5.3,5.3,0,0,0-2.448-.072l-4.427.781,2.185,12.384m3.054-11.59a3.483,3.483,0,0,1,.79.09,1.835,1.835,0,0,1,.984.627,2.606,2.606,0,0,1,.482,1.169,2.55,2.55,0,0,1-.05,1.251,1.754,1.754,0,0,1-.708.893,3.674,3.674,0,0,1-1.431.518l-2.351.417-.79-4.474,2.345-.417a3.622,3.622,0,0,1,.728-.075m-109.379,11.379,7.844-1.382-.285-1.618-5.963,1.05-.664-3.771,5.483-.969-.282-1.608-5.487.965-.661-3.758,5.894-1.038-.285-1.621-7.774,1.37,2.182,12.38m-211.541-.608,1.881-.333-.824-4.671,2.542-.448.107-.022,3.338,4.232,2.142-.379-3.628-4.527c.11-.062.22-.122.323-.194a3.3,3.3,0,0,0,1.208-1.586,4.117,4.117,0,0,0,.128-2.107,4.228,4.228,0,0,0-.84-1.95,3.312,3.312,0,0,0-1.685-1.107,5.3,5.3,0,0,0-2.447-.069l-4.428.781,2.183,12.38m3.051-11.588a3.5,3.5,0,0,1,.8.092,1.818,1.818,0,0,1,.984.626,2.6,2.6,0,0,1,.482,1.17,2.512,2.512,0,0,1-.053,1.248,1.727,1.727,0,0,1-.709.9,3.713,3.713,0,0,1-1.426.518l-2.355.414-.786-4.474,2.345-.414a3.464,3.464,0,0,1,.722-.076m427.086,11.563,1.881-.329-.953-5.4,5.254-.925-.285-1.612-5.251.928-.665-3.759,5.807-1.022-.289-1.621-7.684,1.354,2.186,12.381m-317.867-.815,1.881-.333-.95-5.392,5.251-.928-.282-1.608-5.254.925-.661-3.756,5.8-1.025-.285-1.621-7.684,1.354,2.182,12.383m215.347-.063,2-.351.551-3.474,4.825-.849,1.709,3.072,1.994-.351-6.634-11.6-2.179.386-2.265,13.164m3.8-11.1,2.753,4.95-3.737.658.891-5.592.094-.016m-321.663,10.289,1.993-.354.556-3.471,4.825-.853,1.705,3.076,2-.351-6.634-11.6-2.179.383-2.264,13.167m3.8-11.1,2.752,4.947-3.736.662.888-5.593.1-.016m426.268,11.089,7.483-1.32-.285-1.618-5.6.988-1.9-10.763-1.881.333,2.182,12.38m-317.863-.815,7.483-1.32-.285-1.621-5.6.988-1.9-10.759-1.879.332,2.183,12.38m218.219-.567,1.878-.333-.95-5.392,5.255-.925-.286-1.612-5.251.928-.665-3.759,5.8-1.025-.285-1.621-7.684,1.357,2.185,12.38m108.956-.257,7.84-1.383-.284-1.621-5.963,1.051-.665-3.772,5.483-.965-.282-1.611-5.483.969-.665-3.759,5.9-1.042-.289-1.621-7.774,1.373,2.186,12.381m-426.822-.562,1.88-.333-.949-5.389,5.251-.928-.282-1.608-5.254.925-.661-3.759,5.8-1.022-.284-1.621-7.685,1.354,2.183,12.38m215.281-.047,1.88-.332-.823-4.674,2.542-.448c.034,0,.068-.013.1-.019l3.339,4.229,2.142-.376-3.625-4.527c.107-.062.217-.125.32-.194a3.3,3.3,0,0,0,1.207-1.586,4.128,4.128,0,0,0,.129-2.11,4.25,4.25,0,0,0-.838-1.95,3.329,3.329,0,0,0-1.687-1.1,5.268,5.268,0,0,0-2.448-.072l-4.427.78,2.186,12.383m3.049-11.59h0a3.475,3.475,0,0,1,.789.091,1.838,1.838,0,0,1,.984.627,2.617,2.617,0,0,1,.482,1.169,2.561,2.561,0,0,1-.049,1.251,1.758,1.758,0,0,1-.71.894,3.665,3.665,0,0,1-1.429.517l-2.354.417-.787-4.477,2.345-.411a3.389,3.389,0,0,1,.724-.078m-109.375,11.38,7.845-1.383-.289-1.618-5.96,1.05-.665-3.771,5.484-.969-.282-1.608-5.486.966-.662-3.759,5.894-1.037-.284-1.621-7.775,1.37,2.182,12.38m-211.541-.608,1.881-.332-.825-4.672,2.543-.448c.038-.006.072-.016.106-.021l3.339,4.232,2.142-.379-3.628-4.527c.11-.063.22-.122.323-.194a3.266,3.266,0,0,0,1.2-1.586,4.118,4.118,0,0,0,.132-2.107,4.229,4.229,0,0,0-.84-1.95,3.349,3.349,0,0,0-1.684-1.106,5.317,5.317,0,0,0-2.452-.069l-4.423.781,2.182,12.38m3.057-11.589a3.384,3.384,0,0,1,.789.092,1.8,1.8,0,0,1,.985.627,2.613,2.613,0,0,1,.483,1.169,2.512,2.512,0,0,1-.055,1.248,1.745,1.745,0,0,1-.708.9,3.7,3.7,0,0,1-1.43.517l-2.351.414-.791-4.474,2.35-.414a3.471,3.471,0,0,1,.727-.077m427.08,11.563,1.877-.332-.949-5.389,5.254-.928-.285-1.611-5.251.928-.665-3.759,5.807-1.021-.286-1.621-7.687,1.354,2.186,12.38m-317.867-.815,1.881-.332-.95-5.393,5.251-.925-.282-1.611-5.253.925-.662-3.759,5.8-1.022-.285-1.621-7.684,1.354,2.182,12.383m215.347-.062,1.994-.351.556-3.474,4.824-.85,1.709,3.073,1.994-.351-6.634-11.6-2.18.385-2.264,13.165m3.8-11.1,2.752,4.95-3.736.659.89-5.593.095-.016m-321.664,10.286,1.994-.351.555-3.471,4.821-.85,1.709,3.073,2-.352-6.634-11.6-2.179.382-2.264,13.164m3.8-11.1,2.753,4.95-3.737.662.888-5.593.1-.019m426.268,11.091,7.483-1.316-.285-1.621-5.6.988-1.9-10.763-1.882.333,2.183,12.38m-317.863-.815,7.483-1.32-.286-1.621-5.6.987-1.9-10.76-1.877.333,2.182,12.38m218.219-.567,1.877-.333-.949-5.392,5.255-.925-.286-1.611-5.251.925-.664-3.756,5.806-1.025-.288-1.621-7.685,1.354,2.186,12.384m215.278-.05,1.881-.333-.824-4.671,2.543-.448.1-.022,3.343,4.233,2.138-.379-3.624-4.527c.106-.063.216-.123.319-.194a3.274,3.274,0,0,0,1.207-1.586,4.109,4.109,0,0,0,.129-2.107,4.19,4.19,0,0,0-.838-1.953,3.329,3.329,0,0,0-1.687-1.1,5.307,5.307,0,0,0-2.448-.068l-4.427.78,2.186,12.38m3.057-11.589a3.36,3.36,0,0,1,.786.093,1.8,1.8,0,0,1,.984.627,2.562,2.562,0,0,1,.483,1.169,2.514,2.514,0,0,1-.05,1.248,1.742,1.742,0,0,1-.709.9,3.7,3.7,0,0,1-1.429.518l-2.352.414-.79-4.474,2.345-.414a3.523,3.523,0,0,1,.73-.077m-109.379,11.382,7.841-1.382-.285-1.621-5.963,1.05-.665-3.771,5.483-.965-.282-1.611-5.483.965-.664-3.756,5.894-1.041-.285-1.621-7.775,1.373,2.186,12.38m-426.822-.561,1.881-.332-.951-5.393,5.252-.925-.282-1.611-5.254.928-.661-3.759,5.8-1.022-.286-1.621-7.684,1.354,2.183,12.38m215.281-.05,1.877-.33-.824-4.674,2.546-.448c.035,0,.068-.016.1-.019l3.339,4.229,2.141-.375-3.627-4.527c.11-.062.22-.125.322-.194a3.29,3.29,0,0,0,1.208-1.589,4.115,4.115,0,0,0,.128-2.107,4.253,4.253,0,0,0-.836-1.95,3.343,3.343,0,0,0-1.687-1.1,5.273,5.273,0,0,0-2.448-.072l-4.427.781,2.186,12.38m3.053-11.587a3.492,3.492,0,0,1,.791.09,1.839,1.839,0,0,1,.984.627,2.639,2.639,0,0,1,.482,1.169,2.527,2.527,0,0,1-.054,1.251,1.735,1.735,0,0,1-.705.894,3.716,3.716,0,0,1-1.43.517l-2.354.414-.787-4.474,2.346-.414a3.6,3.6,0,0,1,.727-.075m-109.379,11.38,7.841-1.383-.285-1.617-5.96,1.05-.665-3.774,5.483-.966-.285-1.611-5.482.969-.662-3.759,5.894-1.038-.285-1.621-7.774,1.37,2.182,12.38m218.595-.633,1.878-.333-.949-5.392,5.254-.925-.285-1.612-5.251.928-.664-3.759,5.806-1.022-.288-1.621-7.685,1.354,2.185,12.38m215.345-.063,2-.351.552-3.471,4.825-.853,1.708,3.076,1.994-.354-6.63-11.6-2.18.386-2.267,13.164m3.8-11.1,2.749,4.951-3.736.658.89-5.59.1-.019m-537.014,10.352,1.881-.333-.95-5.392,5.252-.928-.282-1.608-5.255.925-.661-3.759,5.8-1.022-.285-1.621-7.685,1.354,2.183,12.383m215.348-.063,1.994-.351.555-3.474,4.824-.849,1.709,3.072,1.993-.351-6.634-11.6-2.179.386-2.263,13.164m3.8-11.1,2.752,4.951-3.736.658.89-5.592.095-.016m108.4,10.273,7.483-1.32-.285-1.618-5.6.988-1.9-10.763-1.881.333,2.182,12.38m218.219-.567,1.881-.333-.953-5.392,5.255-.925-.285-1.611-5.251.928-.664-3.759,5.806-1.022-.286-1.621-7.684,1.354,2.182,12.38m-536.083-.248,7.484-1.32-.286-1.621-5.6.988-1.9-10.759-1.877.333,2.181,12.38m218.22-.567,1.878-.333-.95-5.392,5.254-.925-.284-1.612-5.252.925-.664-3.756,5.8-1.025-.285-1.621-7.685,1.354,2.186,12.383m215.278-.05,1.881-.332-.824-4.671,2.542-.448c.035-.006.069-.016.1-.022l3.339,4.232,2.142-.379-3.624-4.527c.106-.062.216-.122.319-.194a3.278,3.278,0,0,0,1.207-1.586,4.117,4.117,0,0,0,.129-2.107,4.244,4.244,0,0,0-.837-1.953,3.354,3.354,0,0,0-1.687-1.1,5.3,5.3,0,0,0-2.449-.069l-4.426.781,2.185,12.38m3.054-11.589a3.411,3.411,0,0,1,.79.093,1.8,1.8,0,0,1,.984.627,2.568,2.568,0,0,1,.482,1.169,2.512,2.512,0,0,1-.05,1.248,1.768,1.768,0,0,1-.708.9,3.726,3.726,0,0,1-1.431.517l-2.352.414-.789-4.474,2.345-.414a3.514,3.514,0,0,1,.728-.077m-109.377,11.382,7.842-1.383-.286-1.621-5.962,1.051-.665-3.772,5.483-.965-.282-1.611-5.483.965-.664-3.755,5.893-1.041-.284-1.621-7.775,1.37,2.185,12.384m-211.544-.612,1.881-.329-.824-4.674,2.542-.448c.038-.006.072-.016.107-.022l3.338,4.232,2.142-.376-3.627-4.527c.109-.066.219-.125.323-.194a3.294,3.294,0,0,0,1.207-1.589,4.106,4.106,0,0,0,.128-2.107,4.222,4.222,0,0,0-.84-1.95,3.313,3.313,0,0,0-1.684-1.1,5.281,5.281,0,0,0-2.448-.072l-4.427.78,2.182,12.38m3.052-11.588a3.514,3.514,0,0,1,.8.092,1.838,1.838,0,0,1,.984.627,2.628,2.628,0,0,1,.482,1.169,2.539,2.539,0,0,1-.053,1.251,1.74,1.74,0,0,1-.71.894,3.7,3.7,0,0,1-1.43.517l-2.351.414-.787-4.474,2.346-.414a3.451,3.451,0,0,1,.722-.076m427.085,11.563,1.881-.329-.953-5.393,5.255-.928-.286-1.608-5.251.925-.664-3.759,5.806-1.022-.285-1.621-7.684,1.354,2.182,12.38m-536.459-.182,7.841-1.383-.285-1.621-5.96,1.053L13406,4393l5.482-.968-.284-1.612-5.484.969-.661-3.759,5.895-1.037-.286-1.621-7.775,1.37,2.183,12.38m218.595-.634,1.879-.332-.951-5.392,5.255-.925-.285-1.611-5.251.928-.664-3.759,5.806-1.025-.285-1.618-7.687,1.354,2.185,12.38m215.345-.062,2-.351.552-3.47,4.825-.853,1.708,3.076,1.994-.352-6.631-11.6-2.179.382-2.267,13.164m3.8-11.1,2.75,4.95-3.737.661.89-5.593.1-.019m-321.666,10.289,1.993-.351.555-3.474,4.825-.85,1.708,3.073,1.994-.351-6.634-11.6-2.179.385-2.263,13.165m3.8-11.1,2.753,4.95-3.737.659.891-5.593.094-.016m426.268,11.092,7.484-1.32-.286-1.621-5.6.987-1.9-10.759-1.88.329,2.181,12.383m-317.863-.818,7.483-1.32-.285-1.618-5.6.988-1.9-10.763-1.881.332,2.182,12.381m218.219-.567,1.881-.333-.953-5.393,5.255-.925-.285-1.611-5.252.928-.664-3.759,5.806-1.022-.284-1.621-7.685,1.355,2.182,12.38m108.956-.257,7.841-1.382-.285-1.621-5.959,1.053-.669-3.774,5.487-.966-.286-1.611-5.483.969-.661-3.759,5.891-1.041-.285-1.621-7.775,1.373,2.186,12.38M13533.7,4395l1.878-.332-.949-5.393,5.254-.925-.285-1.611-5.251.925-.665-3.756,5.807-1.025-.289-1.621-7.685,1.354L13533.7,4395m215.278-.05,1.878-.333-.821-4.674,2.542-.448a1.046,1.046,0,0,0,.1-.02l3.339,4.233,2.142-.379-3.624-4.527c.106-.063.216-.123.32-.194a3.3,3.3,0,0,0,1.206-1.586,4.118,4.118,0,0,0,.129-2.11,4.252,4.252,0,0,0-.837-1.95,3.334,3.334,0,0,0-1.687-1.1,5.266,5.266,0,0,0-2.449-.068l-4.426.78,2.185,12.38m3.059-11.589a3.434,3.434,0,0,1,.785.09,1.838,1.838,0,0,1,.984.626,2.616,2.616,0,0,1,.482,1.173,2.563,2.563,0,0,1-.05,1.248,1.755,1.755,0,0,1-.709.893,3.669,3.669,0,0,1-1.43.521l-2.352.414-.79-4.474,2.346-.414a3.5,3.5,0,0,1,.732-.077m-109.381,11.382,7.841-1.382-.286-1.621-5.963,1.05-.664-3.771,5.483-.966-.282-1.611-5.483.965-.664-3.756,5.894-1.041-.285-1.621-7.775,1.37,2.186,12.383m-211.544-.611,1.881-.33-.825-4.674,2.543-.448c.037-.006.072-.016.106-.022l3.339,4.232,2.141-.376-3.627-4.531c.109-.062.22-.122.323-.191a3.28,3.28,0,0,0,1.207-1.589,4.106,4.106,0,0,0,.128-2.107,4.206,4.206,0,0,0-.84-1.95,3.309,3.309,0,0,0-1.684-1.1,5.278,5.278,0,0,0-2.449-.072l-4.426.781,2.183,12.38m3.051-11.588a3.52,3.52,0,0,1,.795.091,1.828,1.828,0,0,1,.984.627,2.609,2.609,0,0,1,.483,1.17,2.526,2.526,0,0,1-.054,1.25,1.734,1.734,0,0,1-.708.894,3.7,3.7,0,0,1-1.427.517l-2.354.414-.786-4.474,2.345-.414a3.457,3.457,0,0,1,.722-.076m427.085,11.565,1.881-.332-.953-5.392,5.254-.928-.284-1.608-5.252.925-.664-3.759,5.806-1.022-.285-1.621-7.684,1.354,2.182,12.383m-317.863-.818,1.878-.333-.95-5.392,5.255-.925-.286-1.612-5.251.928-.665-3.759,5.807-1.025-.289-1.621-7.684,1.357,2.186,12.38m215.344-.063,2-.351.552-3.471,4.824-.853,1.709,3.073,1.994-.351-6.634-11.6-2.18.386-2.263,13.164m3.8-11.1,2.75,4.951-3.737.658.891-5.59.1-.019m-321.666,10.29,1.993-.351.555-3.474,4.825-.85,1.709,3.073,1.994-.352-6.634-11.6-2.179.383-2.264,13.167m3.8-11.1,2.753,4.951-3.737.658.888-5.592.1-.016m426.268,11.092,7.484-1.32-.286-1.622-5.6.988-1.9-10.76-1.882.329,2.182,12.384m-317.862-.819,7.482-1.32-.285-1.618-5.6.988-1.9-10.763-1.878.333,2.183,12.38m218.219-.567,1.881-.332-.953-5.392,5.255-.925-.286-1.611-5.251.928-.665-3.759,5.807-1.025-.289-1.621-7.684,1.357,2.186,12.38m108.956-.257,7.84-1.383-.285-1.621-5.963,1.053-.664-3.774,5.482-.965-.282-1.612-5.482.969-.661-3.759,5.893-1.041-.288-1.618-7.775,1.37,2.187,12.38m-426.823-.561,1.881-.33-.95-5.392,5.255-.928-.286-1.608-5.254.925-.661-3.759,5.8-1.022-.286-1.621-7.683,1.354,2.182,12.38m215.281-.047,1.881-.332-.824-4.671,2.542-.448c.035-.006.069-.016.1-.022l3.34,4.232,2.141-.379-3.625-4.527c.107-.062.218-.122.32-.194a3.283,3.283,0,0,0,1.207-1.586,4.117,4.117,0,0,0,.129-2.106,4.239,4.239,0,0,0-.837-1.953,3.337,3.337,0,0,0-1.687-1.1,5.258,5.258,0,0,0-2.449-.069l-4.427.781,2.186,12.38m3.055-11.589a3.4,3.4,0,0,1,.789.093,1.811,1.811,0,0,1,.984.624,2.628,2.628,0,0,1,.482,1.172,2.548,2.548,0,0,1-.05,1.248,1.758,1.758,0,0,1-.709.894,3.668,3.668,0,0,1-1.43.52l-2.351.414-.79-4.473,2.345-.414a3.523,3.523,0,0,1,.729-.077m-109.381,11.379,7.845-1.38-.285-1.621-5.963,1.05-.665-3.772,5.482-.968-.281-1.608-5.486.966-.662-3.756,5.895-1.041-.285-1.621-7.774,1.37,2.181,12.381m-211.54-.609,1.881-.332-.825-4.671,2.543-.448c.037-.006.072-.016.106-.022l3.339,4.232,2.142-.376-3.628-4.53c.109-.063.22-.123.323-.194a3.277,3.277,0,0,0,1.206-1.586,4.107,4.107,0,0,0,.13-2.107,4.224,4.224,0,0,0-.841-1.95,3.349,3.349,0,0,0-1.684-1.106,5.293,5.293,0,0,0-2.448-.069l-4.427.78,2.183,12.38m3.051-11.588a3.514,3.514,0,0,1,.795.092,1.838,1.838,0,0,1,.984.627,2.606,2.606,0,0,1,.482,1.169,2.5,2.5,0,0,1-.053,1.248,1.727,1.727,0,0,1-.708.9,3.707,3.707,0,0,1-1.43.517l-2.352.414-.786-4.474,2.344-.414a3.481,3.481,0,0,1,.723-.076m427.085,11.563,1.882-.329-.953-5.393,5.254-.928-.285-1.611-5.251.928-.665-3.759,5.807-1.022-.286-1.621-7.687,1.355,2.186,12.38m-317.867-.815,1.881-.332-.949-5.392,5.255-.925-.286-1.611-5.254.925-.662-3.756,5.807-1.025-.289-1.621-7.684,1.357,2.182,12.38m215.348-.062,2-.351.552-3.47,4.824-.853,1.71,3.076,1.993-.354-6.634-11.6-2.179.385-2.264,13.164m3.8-11.1,2.752,4.95-3.736.658.891-5.59.094-.019m-321.664,10.289,1.994-.354.555-3.471,4.826-.85,1.7,3.072,2-.351-6.634-11.6-2.179.382-2.265,13.167m3.8-11.1,2.753,4.95-3.737.659.888-5.593.1-.016m426.269,11.089,7.482-1.317-.284-1.621-5.6.987-1.9-10.763-1.882.333,2.183,12.38m-317.864-.815,7.484-1.32-.286-1.618-5.6.987-1.9-10.763-1.878.333,2.182,12.38m218.22-.567,1.881-.333-.953-5.393,5.254-.925-.285-1.611-5.251.928-.665-3.759,5.807-1.025-.289-1.617-7.684,1.354,2.186,12.38m215.277-.05,1.881-.333-.824-4.671,2.543-.449c.034-.006.069-.016.1-.022l3.343,4.233,2.138-.376-3.624-4.53c.106-.063.217-.122.32-.194a3.27,3.27,0,0,0,1.206-1.586,4.1,4.1,0,0,0,.129-2.107,4.164,4.164,0,0,0-.837-1.95,3.347,3.347,0,0,0-1.683-1.107,5.33,5.33,0,0,0-2.453-.069l-4.423.781,2.182,12.38m3.053-11.588a3.54,3.54,0,0,1,.795.091,1.82,1.82,0,0,1,.98.627,2.554,2.554,0,0,1,.483,1.169,2.523,2.523,0,0,1-.051,1.248,1.745,1.745,0,0,1-.708.9,3.7,3.7,0,0,1-1.43.517l-2.352.414-.789-4.474,2.348-.414a3.466,3.466,0,0,1,.723-.076m-109.375,11.381,7.841-1.382-.285-1.621-5.962,1.053-.665-3.774,5.482-.966-.282-1.611-5.482.969-.665-3.759,5.894-1.041-.285-1.621-7.774,1.373,2.185,12.38m-426.823-.558,1.882-.333-.95-5.393,5.251-.928-.282-1.608-5.254.925-.662-3.759,5.8-1.022-.285-1.621-7.684,1.354,2.181,12.384m215.282-.051,1.878-.332-.821-4.674,2.542-.448c.035,0,.069-.013.1-.019l3.338,4.229,2.142-.376-3.624-4.527c.106-.063.216-.125.319-.194a3.3,3.3,0,0,0,1.208-1.586,4.129,4.129,0,0,0,.128-2.11,4.242,4.242,0,0,0-.837-1.95,3.332,3.332,0,0,0-1.687-1.1,5.251,5.251,0,0,0-2.447-.069l-4.428.777,2.186,12.383m3.06-11.589a3.432,3.432,0,0,1,.784.09,1.838,1.838,0,0,1,.984.626,2.619,2.619,0,0,1,.482,1.17,2.55,2.55,0,0,1-.05,1.251,1.75,1.75,0,0,1-.709.893,3.625,3.625,0,0,1-1.429.518l-2.355.417-.786-4.477,2.345-.411a3.5,3.5,0,0,1,.733-.077m-109.386,11.382,7.845-1.385-.289-1.618-5.959,1.05-.665-3.771,5.483-.969-.282-1.608-5.486.965-.662-3.759,5.895-1.038-.286-1.621-7.774,1.37,2.182,12.383m218.6-.636,1.881-.329-.953-5.393,5.255-.928-.285-1.608-5.251.925-.665-3.759,5.807-1.022-.289-1.621-7.684,1.354,2.185,12.38m215.348-.059,1.994-.354.551-3.471,4.825-.85,1.709,3.073,1.994-.352-6.632-11.6-2.179.382-2.263,13.167m3.8-11.108,2.749,4.954-3.737.658.891-5.593.1-.019m-537.015,10.352,1.881-.333-.949-5.392,5.251-.925-.282-1.612-5.255.925-.661-3.756,5.8-1.025-.284-1.621-7.685,1.357,2.182,12.38m215.348-.063,1.994-.351.555-3.471,4.825-.853,1.708,3.073,1.994-.351-6.634-11.6-2.179.386-2.264,13.164m3.8-11.1,2.752,4.951-3.737.658.892-5.593.094-.016m108.4,10.277,7.483-1.32-.285-1.621-5.6.988-1.9-10.76-1.881.329,2.183,12.384m218.219-.571,1.881-.329-.95-5.393,5.252-.928-.286-1.608-5.251.925-.665-3.759,5.807-1.022-.285-1.621-7.685,1.354,2.183,12.38m-536.083-.248,7.483-1.32-.285-1.618-5.6.988-1.9-10.763-1.878.333,2.182,12.38m218.219-.567,1.878-.333-.949-5.392,5.254-.925-.285-1.612-5.251.925-.665-3.755,5.8-1.025-.284-1.621-7.685,1.357,2.185,12.381m108.956-.257,7.842-1.383-.286-1.621-5.963,1.053-.665-3.774,5.484-.965-.282-1.612-5.483.969-.665-3.759,5.9-1.041-.289-1.621-7.774,1.373,2.185,12.38m218.593-.633,1.881-.333-.95-5.392,5.251-.925-.281-1.611-5.255.925-.665-3.756,5.807-1.025-.285-1.621-7.685,1.354,2.183,12.383m-536.459-.185,7.844-1.383-.289-1.618-5.959,1.05-.665-3.772,5.483-.968-.285-1.608-5.483.966-.661-3.759,5.894-1.038-.285-1.621-7.775,1.371,2.183,12.38m218.595-.634,1.878-.332-.95-5.393,5.255-.925-.286-1.611-5.251.928-.665-3.759,5.807-1.022-.285-1.621-7.687,1.355,2.185,12.38m327.551-.89,7.48-1.32-.285-1.621-5.6.991-1.9-10.762-1.881.332,2.185,12.38m-317.866-.818,7.483-1.32-.286-1.618-5.6.987-1.9-10.763-1.881.333,2.183,12.38m327.175-.825,7.841-1.382-.285-1.618-5.961,1.05-.664-3.771,5.483-.969-.285-1.608-5.483.965-.661-3.759,5.894-1.038-.289-1.621-7.771,1.37,2.183,12.38m-317.864-.815,7.842-1.382-.286-1.621-5.963,1.05-.665-3.771,5.483-.966-.281-1.611-5.484.969-.664-3.759,5.894-1.041-.284-1.621-7.775,1.373,2.185,12.38m38.65,69.455-2.337-13.256,4.854-.856a5.774,5.774,0,0,1,2.649.076h.006a3.765,3.765,0,0,1,1.908,1.254l.006.007a4.671,4.671,0,0,1,.927,2.145,4.553,4.553,0,0,1-.145,2.325l0,.009a3.684,3.684,0,0,1-1.289,1.744l3.151,3.933,2.264-13.166,2.794-.49.154.271,6.948,12.146-2.928.516-1.709-3.073-4.2.74-.555,3.47-2.928.52v0l-2.348.416-.165-.209-3.173-4.021-1.952.344.824,4.671Zm.859-11.253.633,3.6,1.928-.339a3.253,3.253,0,0,0,1.254-.452h0a1.293,1.293,0,0,0,.523-.659,2.068,2.068,0,0,0,.041-1.019l0-.027a2.176,2.176,0,0,0-.4-.963,1.377,1.377,0,0,0-.735-.467,3.063,3.063,0,0,0-1.32-.013l-.016,0Zm13.216-.875-.611,3.854,2.509-.442Zm-331.939,11.313-.077-.438-2.26-12.821.438-.077,4.417-.779a5.7,5.7,0,0,1,2.651.079,3.754,3.754,0,0,1,1.913,1.252l.006.007a4.693,4.693,0,0,1,.928,2.147,4.6,4.6,0,0,1-.148,2.323l0,.009a3.718,3.718,0,0,1-1.289,1.744l3.153,3.933,2.263-13.164,2.8-.495.154.272,6.948,12.145-2.932.516-1.709-3.073-4.2.74-.555,3.474-2.873.506-2.4.422-.165-.208-3.174-4.021-1.95.344.824,4.674Zm.855-11.253.636,3.6,1.932-.342a3.183,3.183,0,0,0,1.251-.452,1.293,1.293,0,0,0,.523-.654,2.066,2.066,0,0,0,.04-1.02l-.006-.032a2.115,2.115,0,0,0-.395-.959,1.4,1.4,0,0,0-.736-.468,3.11,3.11,0,0,0-1.322-.012l-.011,0Zm13.221-.878-.613,3.854,2.508-.442Zm326.1,9.012-.078-.438-2.258-12.818.438-.077,8.119-1.432.445,2.5-5.807,1.022.51,2.884,5.251-.925.441,2.483-5.256.928.95,5.39Zm215.281-.051-.077-.437-2.263-12.818.438-.077,4.418-.78a5.729,5.729,0,0,1,2.65.08,3.753,3.753,0,0,1,1.914,1.251l.008.009a4.647,4.647,0,0,1,.923,2.145,4.549,4.549,0,0,1-.144,2.325l0,.008a3.7,3.7,0,0,1-1.288,1.745l3.149,3.934,2.264-13.165,2.795-.495,7.1,12.417-2.929.516-1.709-3.072-4.2.74-.552,3.474-.312.055-1.827.321h0l-3.141.551-.165-.208-3.175-4.02-1.946.344.82,4.674Zm.856-11.252.636,3.6,1.928-.339a3.313,3.313,0,0,0,1.254-.452h0a1.3,1.3,0,0,0,.523-.656,2.132,2.132,0,0,0,.039-1.022l-.006-.027a2.168,2.168,0,0,0-.395-.963,1.387,1.387,0,0,0-.738-.467,3.112,3.112,0,0,0-1.321-.012l-.013,0Zm13.219-.872-.612,3.85,2.508-.441Zm-547.221,11.36-.077-.438-2.259-12.818,8.56-1.512.077.438.361,2.058-5.8,1.025.507,2.883,5.256-.928.436,2.487-.437.078-4.813.848.949,5.392Zm215.278-.05-2.336-13.256.438-.077,4.419-.779a5.759,5.759,0,0,1,2.647.076l.007,0a3.776,3.776,0,0,1,1.907,1.254l.006.007a4.684,4.684,0,0,1,.928,2.145,4.573,4.573,0,0,1-.146,2.325l0,.009a3.726,3.726,0,0,1-1.289,1.743l3.15,3.933,2.264-13.165.308-.054,2.487-.437.154.271,6.948,12.146-2.933.516-1.7-3.072-4.2.739-.555,3.47-2.928.52v0l-2.349.416-.165-.208-3.172-4.021-1.952.344.825,4.671Zm.859-11.253.633,3.6,1.931-.339a3.252,3.252,0,0,0,1.257-.456,1.285,1.285,0,0,0,.519-.656,2.067,2.067,0,0,0,.041-1.018l0-.027a2.149,2.149,0,0,0-.395-.962,1.374,1.374,0,0,0-.737-.467,3.042,3.042,0,0,0-1.32-.013l-.016,0Zm13.218-.879-.612,3.856,2.509-.444Zm98.192,11.292-.077-.438-2.259-12.821.438-.078,8.12-1.431.445,2.5-5.808,1.022.511,2.883,5.251-.925.44,2.487-5.255.925.949,5.392Zm-317.863-.818-.078-.438-2.258-12.818.438-.077,8.122-1.431.076.438.362,2.055-5.8,1.025.507,2.883,5.255-.928.436,2.488-.437.077-4.813.847.95,5.392Zm327.551-.891-.077-.437-2.26-12.817,2.754-.487,1.9,10.76,5.6-.988.44,2.5-.437.077Zm218.22-.567-2.34-13.259.438-.077,8.12-1.431.445,2.5-5.808,1.025.511,2.881,5.251-.925.44,2.487-5.255.925.953,5.392Zm-536.083-.251-2.34-13.256,2.756-.487,1.9,10.763,5.6-.987.443,2.5-.438.077Zm218.215-.568-.077-.437-2.259-12.818.438-.077,8.123-1.431.438,2.5-.437.077-5.366.945.508,2.883,5.255-.928.436,2.487-.437.077-4.813.848.95,5.4Zm215.282-.05-.078-.437-2.259-12.818.438-.077,4.416-.779a5.729,5.729,0,0,1,2.648.079,3.761,3.761,0,0,1,1.914,1.251l.007.008a4.642,4.642,0,0,1,.925,2.146,4.566,4.566,0,0,1-.145,2.323l0,.009a3.71,3.71,0,0,1-1.288,1.745l3.149,3.933,2.266-13.164,2.795-.495.154.272,6.945,12.145-2.928.516-1.708-3.072-4.2.74-.552,3.474-.312.055-1.826.321h0l-3.139.552-.165-.208-3.175-4.021-1.949.344.824,4.675Zm.856-11.251.636,3.6,1.928-.339a3.248,3.248,0,0,0,1.256-.453,1.314,1.314,0,0,0,.522-.655,2.088,2.088,0,0,0,.037-1.021l0-.031a2.1,2.1,0,0,0-.394-.958,1.4,1.4,0,0,0-.735-.469,3.038,3.038,0,0,0-1.319-.012l-.016,0Zm13.22-.876-.613,3.854,2.508-.442Zm-120.4,11.921-.077-.437-2.259-12.818.438-.078,8.212-1.447.44,2.5-.437.077-5.457.96.508,2.884,5.487-.969.436,2.487-.437.077-5.046.892.511,2.9,5.958-1.05.445,2.493-.438.078Zm-211.541-.608-.077-.437-2.26-12.818.438-.077,4.418-.78a5.772,5.772,0,0,1,2.649.077h0a3.729,3.729,0,0,1,1.91,1.254l0,.007a4.689,4.689,0,0,1,.928,2.145,4.583,4.583,0,0,1-.145,2.325l0,.009a3.739,3.739,0,0,1-1.289,1.742l3.149,3.932,2.265-13.164,2.795-.494.154.271,6.948,12.145-2.933.52-1.705-3.076-4.2.742-.556,3.471-5.275.932-.165-.209-3.172-4.021-1.952.344.825,4.671Zm.856-11.252.635,3.6,1.93-.339a3.237,3.237,0,0,0,1.258-.455,1.29,1.29,0,0,0,.52-.656,2.083,2.083,0,0,0,.042-1.019l0-.026a2.178,2.178,0,0,0-.395-.962,1.383,1.383,0,0,0-.739-.468,3.02,3.02,0,0,0-1.319-.013l-.016,0Zm13.222-.879-.612,3.856,2.509-.444Zm416.059,12.106-2.339-13.255.438-.078,8.124-1.431.439,2.493-5.806,1.025.51,2.884,5.251-.928.441,2.487-5.256.925.953,5.392Zm-536.459-.182-.077-.437-2.259-12.821.438-.077,8.213-1.447.438,2.5-5.894,1.041.508,2.881,5.482-.965.44,2.486-5.484.966.511,2.9,5.959-1.051.44,2.5Zm218.592-.633-.077-.438-2.259-12.821.438-.077,8.122-1.431.438,2.5-5.8,1.025.508,2.881,5.255-.925.436,2.483-5.251.928.949,5.393Zm327.552-.894-.077-.437-2.26-12.818,2.756-.487,1.9,10.763,5.6-.988.44,2.493-.437.077Zm-317.864-.815-.077-.437-2.26-12.818,2.754-.488,1.9,10.76,5.6-.987.439,2.5-.437.077Zm218.219-.567-.077-.438-2.26-12.822.438-.077,8.122-1.431.44,2.5-5.807,1.025.511,2.881,5.25-.925.441,2.486-5.252.925.95,5.392Zm108.956-.258-2.339-13.259.438-.078,8.212-1.446.439,2.5-5.894,1.041.51,2.881,5.484-.965.437,2.487-.437.077-5.047.888.511,2.9,5.963-1.05.44,2.5-.437.077Zm-426.822-.562-.077-.437-2.26-12.818.438-.077,8.122-1.431.439,2.5-.437.077-5.365.945.507,2.883,5.256-.928.436,2.487-.437.077-4.814.851.95,5.39Zm215.281-.05-.077-.437-2.263-12.818,4.858-.857a5.737,5.737,0,0,1,2.647.08,3.758,3.758,0,0,1,1.914,1.251l.008.009a4.692,4.692,0,0,1,.924,2.145,4.571,4.571,0,0,1-.145,2.325l0,.009a3.719,3.719,0,0,1-1.288,1.745l3.148,3.933,2.265-13.167.308-.054,2.486-.437.155.271,6.947,12.146-2.928.516-1.708-3.073-4.2.74-.556,3.474-2.134.375h0l-3.143.551-.164-.208-3.171-4.02-1.95.344.821,4.674Zm.856-11.252.633,3.6,1.932-.339a3.294,3.294,0,0,0,1.258-.455,1.325,1.325,0,0,0,.52-.653,2.13,2.13,0,0,0,.038-1.021l0-.026a2.207,2.207,0,0,0-.4-.963,1.384,1.384,0,0,0-.74-.468,3.054,3.054,0,0,0-1.316-.012l-.016,0Zm13.219-.873-.612,3.851,2.508-.441Zm-120.4,11.918-.077-.437-2.26-12.818.438-.077,8.214-1.447.438,2.5-.437.078-5.456.96.508,2.883,5.481-.965.441,2.483-5.484.969.51,2.9,5.959-1.05.445,2.493-.438.078Zm-211.542-.607-.077-.438-2.259-12.818,4.855-.857a5.765,5.765,0,0,1,2.649.077h0a3.743,3.743,0,0,1,1.909,1.252l.006.008a4.69,4.69,0,0,1,.926,2.146,4.553,4.553,0,0,1-.147,2.326l0,.007a3.69,3.69,0,0,1-1.288,1.745l3.151,3.933,2.263-13.165,2.8-.491.154.271,6.948,12.146-2.931.516-.154-.277-1.555-2.8-4.2.742-.555,3.471-5.276.932-.165-.209-3.172-4.021-1.952.345.824,4.67Zm.859-11.253.634,3.6,1.927-.339a3.243,3.243,0,0,0,1.259-.456,1.3,1.3,0,0,0,.52-.655,2.111,2.111,0,0,0,.041-1.022l0-.024a2.168,2.168,0,0,0-.394-.963,1.368,1.368,0,0,0-.737-.466,3.017,3.017,0,0,0-1.32-.013l-.016,0Zm13.218-.88-.614,3.857,2.512-.444Zm416.06,12.107-2.337-13.256,8.56-1.512.439,2.5-5.807,1.025.511,2.884,5.251-.929.441,2.488-5.252.925.949,5.392Zm-317.866-.819-.077-.437-2.26-12.818.438-.077,8.121-1.431.44,2.5-.437.077-5.365.945.508,2.883,5.254-.925.437,2.483-5.252.928.95,5.393Zm327.554-.89-2.34-13.255,2.756-.487,1.9,10.763,5.6-.988.44,2.493-.437.077Zm-317.867-.815-.077-.437-2.259-12.817,2.753-.487,1.9,10.76,5.6-.988.439,2.5-.437.077Zm218.219-.571-.077-.437-2.262-12.818.438-.077,8.121-1.432.44,2.5-.437.077-5.365.945.509,2.883,5.252-.925.439,2.484-5.255.928.951,5.393Zm108.956-.257-.077-.437-2.259-12.818.438-.077,8.21-1.448.438,2.5-5.891,1.042.507,2.881,5.483-.966.439,2.483-5.485.969.513,2.9,5.96-1.05.439,2.5-.437.077Zm-426.822-.557-2.337-13.256.438-.077,8.122-1.432.439,2.5-.437.077-5.365.945.507,2.883,5.256-.928.436,2.487-.437.078-4.813.847.949,5.392Zm215.278-.051-.078-.437-2.258-12.818.438-.077,4.417-.779a5.774,5.774,0,0,1,2.649.076l.006,0a3.79,3.79,0,0,1,1.91,1.252l.008.01a4.708,4.708,0,0,1,.923,2.143,4.564,4.564,0,0,1-.145,2.325l0,.01a3.7,3.7,0,0,1-1.29,1.743l3.15,3.935,2.264-13.168,2.795-.491.154.271,6.948,12.145-2.928.516-.154-.276-1.554-2.8-4.2.74-.555,3.47-2.135.379h0l-.793.14h0l-2.349.413-.164-.208-3.172-4.021-1.952.344.828,4.672Zm.859-11.252.633,3.6,1.928-.339a3.3,3.3,0,0,0,1.258-.453,1.3,1.3,0,0,0,.52-.659,2.067,2.067,0,0,0,.042-1.018l0-.027a2.172,2.172,0,0,0-.395-.962,1.4,1.4,0,0,0-.737-.467,3.043,3.043,0,0,0-1.32-.013l-.016,0Zm13.22-.872-.613,3.85,2.508-.442Zm-120.4,11.917-.077-.437-2.26-12.818.438-.078,8.213-1.447.439,2.5-.437.077-5.456.96.508,2.883,5.481-.969.441,2.487-5.483.965.51,2.9,5.96-1.053.077.438.361,2.058-.437.077Zm-211.542-.608-.077-.438-2.259-12.818.438-.077,4.416-.779a5.792,5.792,0,0,1,2.65.076l.006,0a3.726,3.726,0,0,1,1.909,1.255l0,.006a4.669,4.669,0,0,1,.927,2.145,4.549,4.549,0,0,1-.146,2.325l0,.009a3.707,3.707,0,0,1-1.287,1.743l3.15,3.933,2.263-13.165,2.8-.494.154.271,6.948,12.145-2.931.52-.155-.277-1.554-2.8-4.2.742-.555,3.471-5.275.932-.165-.209-3.173-4.021-1.951.344.823,4.671Zm.856-11.252.636,3.6,1.929-.339a3.183,3.183,0,0,0,1.255-.457,1.29,1.29,0,0,0,.523-.653,2.058,2.058,0,0,0,.038-1.015l-.007-.035a2.084,2.084,0,0,0-.394-.958,1.351,1.351,0,0,0-.733-.467,3.032,3.032,0,0,0-1.32-.013l-.016,0Zm13.22-.879-.613,3.854,2.509-.442Zm416.061,12.106-2.34-13.255,8.563-1.513.076.438.362,2.058-5.806,1.025.51,2.881,5.252-.924.439,2.486-.437.078-4.817.848.95,5.392Zm-317.866-.816-.078-.437-2.259-12.821.438-.077,8.121-1.432.44,2.5-.437.078-5.365.945.508,2.883,5.254-.925.436,2.483-5.251.928.95,5.393Zm327.55-.893-.077-.437-2.259-12.818,2.757-.487,1.9,10.763,5.6-.987.44,2.493-.437.077Zm-317.862-.815-2.341-13.259,2.757-.483,1.9,10.759,5.6-.987.438,2.5-.437.077Zm218.218-.567-2.34-13.26.438-.077,8.122-1.432.443,2.5-5.807,1.022.51,2.884,5.252-.925.439,2.483-5.254.928.95,5.393Zm215.279-.05-2.34-13.259.438-.078,4.418-.775a5.722,5.722,0,0,1,2.65.076,3.76,3.76,0,0,1,1.914,1.251l.009.011a4.7,4.7,0,0,1,.922,2.146,4.561,4.561,0,0,1-.144,2.324l0,.011a3.723,3.723,0,0,1-1.288,1.74l3.149,3.934,2.263-13.165,2.795-.5,7.1,12.417-2.929.516-1.708-3.072-4.2.742-.553,3.471-5.278.932-.165-.208-3.174-4.023-1.947.344.825,4.674Zm.855-11.253.636,3.6,1.931-.342a3.192,3.192,0,0,0,1.254-.454,1.306,1.306,0,0,0,.521-.653,2.122,2.122,0,0,0,.038-1.019l0-.028a2.108,2.108,0,0,0-.393-.959,1.374,1.374,0,0,0-.739-.473,3.075,3.075,0,0,0-1.319-.01l-.016,0Zm13.221-.879-.613,3.854,2.508-.441Zm-120.4,11.925-2.341-13.259.438-.078,8.213-1.446.44,2.5-.437.077-5.457.961.511,2.883,5.483-.965.436,2.483-5.482.969.51,2.9,5.963-1.05.439,2.493Zm-426.823-.562-2.337-13.256.438-.077,8.121-1.431.44,2.5-.437.077-5.365.945.508,2.883,5.254-.928.437,2.487-.437.077-4.813.848.949,5.393Zm215.277-.051-.077-.437-2.259-12.818.438-.077,4.418-.78a5.718,5.718,0,0,1,2.651.08,3.74,3.74,0,0,1,1.912,1.252l0,.007a4.676,4.676,0,0,1,.928,2.145,4.575,4.575,0,0,1-.145,2.325l0,.009a3.674,3.674,0,0,1-1.291,1.745l3.151,3.935,2.264-13.168.308-.054,2.487-.437.154.271,6.948,12.146-2.927.516-1.71-3.073-4.2.74-.555,3.474-.312.055-1.824.32h0l-3.141.551-.165-.208-3.173-4.02-1.951.344.824,4.675Zm.859-11.252.634,3.6,1.931-.339a3.244,3.244,0,0,0,1.256-.455,1.3,1.3,0,0,0,.52-.652,2.1,2.1,0,0,0,.041-1.022l0-.027a2.189,2.189,0,0,0-.395-.962,1.385,1.385,0,0,0-.738-.467,3.038,3.038,0,0,0-1.319-.013l-.016,0Zm13.221-.872-.613,3.85,2.508-.441Zm-120.4,11.917-.078-.437-2.258-12.818,8.649-1.528.439,2.5-5.894,1.041.508,2.883,5.482-.969.439,2.487-.437.077-5.046.889.51,2.9,5.96-1.053.44,2.5-.437.077Zm218.6-.633-2.341-13.256,8.559-1.512.444,2.5-5.807,1.025.51,2.881,5.252-.925.438,2.487-.437.077-4.815.848.949,5.392Zm-317.868-.819-.077-.437-2.26-12.818.438-.077,8.122-1.431.44,2.5-.437.077-5.366.945.508,2.883,5.255-.925.436,2.483-5.251.928.95,5.393Zm327.552-.89-.077-.437-2.26-12.817,2.753-.488,1.9,10.763,5.6-.988.439,2.493-.437.077Zm218.219-.567-2.34-13.256.438-.077,8.125-1.432.439,2.493-5.806,1.025.51,2.883,5.251-.928.439,2.487-.437.078-4.815.848.952,5.392Zm-536.082-.249L13396.3,4406l2.756-.482.077.437,1.82,10.322,5.606-.987.438,2.5-.437.077Zm218.219-.567-2.341-13.259.438-.077,8.122-1.431.44,2.5-.437.078-5.366.945.511,2.883,5.251-.925.44,2.483-5.255.928.949,5.392Zm215.277-.051-2.339-13.255.438-.077,4.417-.779a5.723,5.723,0,0,1,2.651.076,3.765,3.765,0,0,1,1.914,1.251l.009.01a4.7,4.7,0,0,1,.923,2.145,4.58,4.58,0,0,1-.145,2.327l0,.009a3.715,3.715,0,0,1-1.288,1.742l3.149,3.934,2.263-13.165,2.795-.494.155.271,6.947,12.146-2.927.516-1.709-3.073-4.2.743-.552,3.471-.312.055-2.564.451-2.4.426-.165-.208-3.175-4.023-1.947.343.825,4.674Zm.856-11.254.636,3.6,1.931-.343a3.187,3.187,0,0,0,1.255-.453,1.315,1.315,0,0,0,.521-.653,2.109,2.109,0,0,0,.038-1.019l0-.028a2.169,2.169,0,0,0-.4-.965,1.376,1.376,0,0,0-.738-.467,3.054,3.054,0,0,0-1.318-.009l-.016,0Zm13.221-.876-.614,3.854,2.509-.442Zm-120.4,11.921-2.34-13.255.438-.077,8.212-1.447.44,2.5-.437.078-5.457.96.511,2.884,5.483-.966.436,2.483-5.482.969.51,2.9,5.963-1.05.439,2.493-.437.077Zm-211.545-.608-.077-.437-2.26-12.818.438-.077,4.42-.78a5.779,5.779,0,0,1,2.647.077h.006a3.768,3.768,0,0,1,1.908,1.253l.006.007a4.662,4.662,0,0,1,.926,2.145,4.563,4.563,0,0,1-.144,2.325l0,.009a3.708,3.708,0,0,1-1.29,1.744l3.15,3.935,2.265-13.168,2.795-.491.154.271,6.948,12.145-2.929.516-1.709-3.072-4.2.74-.555,3.47-2.136.379h0l-.793.14h0l-2.349.413-.164-.209-3.172-4.021-1.952.344.824,4.671Zm.859-11.252.633,3.6,1.928-.339a3.242,3.242,0,0,0,1.257-.454,1.294,1.294,0,0,0,.521-.658,2.078,2.078,0,0,0,.041-1.018l0-.027a2.177,2.177,0,0,0-.4-.963,1.381,1.381,0,0,0-.737-.466,3.052,3.052,0,0,0-1.319-.013l-.016,0Zm13.218-.877-.612,3.855,2.509-.442Zm416.06,12.1-2.341-13.256.438-.077,8.127-1.432.438,2.5-.437.078-5.368.944.51,2.884,5.252-.925.439,2.483-5.254.928.952,5.39Zm-536.46-.182-.077-.437-2.259-12.818.438-.077,8.212-1.447.44,2.5-.437.077-5.457.96.508,2.883,5.483-.968.44,2.487-5.484.965.511,2.9,5.959-1.054.44,2.5-.437.077Zm218.6-.633-2.34-13.255,8.559-1.512.445,2.5-5.808,1.025.511,2.88,5.25-.924.441,2.486-5.255.925.949,5.392Zm327.549-.891-.078-.437-2.259-12.822,2.757-.482.076.437,1.819,10.322,5.6-.987.438,2.5-.437.077Zm-317.864-.818-.077-.437-2.26-12.818,2.753-.487,1.9,10.763,5.6-.987.438,2.493-.437.077Zm218.219-.567-2.34-13.256,8.558-1.512.445,2.5-5.807,1.025.51,2.881,5.251-.925.441,2.487-5.256.925.953,5.392Zm108.956-.258-2.34-13.255,8.649-1.528.44,2.5-5.891,1.041.507,2.883,5.483-.968.437,2.487-.437.077-5.046.889.511,2.9,5.964-1.053.438,2.5-.437.077Zm-426.823-.562-.077-.437-2.259-12.818.438-.077,8.122-1.431.438,2.5-.437.077-5.365.945.507,2.883,5.256-.928.436,2.487-5.251.928.949,5.394Zm215.281-.046-2.339-13.259,4.856-.857a5.788,5.788,0,0,1,1.16-.118,5.7,5.7,0,0,1,1.489.2,3.761,3.761,0,0,1,1.914,1.251l.008.009a4.648,4.648,0,0,1,.923,2.146,4.547,4.547,0,0,1-.145,2.324l0,.008a3.706,3.706,0,0,1-1.287,1.745l3.148,3.934,2.264-13.165,2.794-.495,7.1,12.417-2.928.516-1.709-3.072-4.2.739-.551,3.474-.312.055-1.827.321h0l-3.141.551-3.338-4.229-1.948.344.822,4.674Zm.857-11.254.635,3.6,1.931-.342a3.247,3.247,0,0,0,1.256-.456,1.293,1.293,0,0,0,.52-.652,2.118,2.118,0,0,0,.038-1.021l0-.027a2.164,2.164,0,0,0-.395-.962,1.379,1.379,0,0,0-.739-.468,3.1,3.1,0,0,0-1.321-.012l-.012,0Zm13.219-.875-.613,3.85,2.508-.441Zm-120.4,11.918-.077-.437-2.259-12.818.438-.077,8.212-1.447.439,2.5-.437.077-5.456.96.508,2.883,5.487-.965.436,2.483-5.483.969.51,2.9,5.963-1.05.439,2.493-.437.077Zm-211.541-.608-2.337-13.256,4.856-.856a5.763,5.763,0,0,1,2.648.076h0a3.731,3.731,0,0,1,1.91,1.255l0,.006a4.675,4.675,0,0,1,.927,2.145,4.57,4.57,0,0,1-.144,2.325l0,.009a3.719,3.719,0,0,1-1.29,1.742l3.151,3.933,2.264-13.165.308-.054,2.487-.437.154.271,6.948,12.146-2.933.516-1.705-3.075-4.2.742-.556,3.471-2.929.52v0l-2.348.416-.165-.208-3.172-4.021-1.952.345.824,4.67Zm.859-11.252.633,3.6,1.932-.339a3.24,3.24,0,0,0,1.255-.455,1.292,1.292,0,0,0,.52-.656,2.055,2.055,0,0,0,.04-1.018l0-.028a2.153,2.153,0,0,0-.394-.961,1.377,1.377,0,0,0-.737-.467,3.056,3.056,0,0,0-1.32-.013l-.016,0Zm13.218-.877-.611,3.854,2.508-.444Zm416.06,12.1-.077-.437-2.263-12.818.438-.077,8.12-1.431.445,2.5-5.808,1.022.511,2.883,5.251-.928.44,2.487-5.255.925.953,5.4Zm-317.867-.814-.077-.438-2.259-12.821.438-.077,8.122-1.432.438,2.5-5.8,1.025.507,2.881,5.255-.925.436,2.484-5.251.928.95,5.392Zm327.551-.894-.077-.437-2.26-12.817,2.757-.487,1.9,10.763,5.6-.988.439,2.493-.437.077Zm-317.863-.815-.077-.437-2.26-12.817,2.754-.488,1.9,10.76,5.6-.987.44,2.5-.437.077Zm218.219-.567-2.34-13.256,8.561-1.512.076.438.362,2.058-5.8,1.025.511,2.884,5.251-.929.441,2.487-5.256.925.95,5.392Zm108.956-.257-2.34-13.255,8.648-1.528.445,2.5-5.9,1.041.511,2.884,5.484-.969.436,2.488-.437.077-5.046.888.511,2.9,5.964-1.05.438,2.5-.437.077Zm-426.822-.561-2.337-13.256.438-.077,8.122-1.431.438,2.5-.437.077-5.364.945.508,2.883,5.253-.925.437,2.483-5.251.928.949,5.389Zm215.281-.047-2.341-13.259,4.856-.856a5.731,5.731,0,0,1,2.65.08,3.768,3.768,0,0,1,1.914,1.25l.008.01a4.713,4.713,0,0,1,.924,2.145,4.58,4.58,0,0,1-.145,2.327l0,.01a3.716,3.716,0,0,1-1.289,1.741l3.149,3.933,2.264-13.164,2.795-.494.154.271,6.948,12.146-2.928.516-1.709-3.073-4.2.74-.556,3.474-2.135.376h0l-3.142.552-.165-.208-3.173-4.02-1.947.344.823,4.674Zm.855-11.255.633,3.6,1.935-.343a3.225,3.225,0,0,0,1.253-.453,1.3,1.3,0,0,0,.522-.654,2.128,2.128,0,0,0,.037-1.021l0-.028a2.17,2.17,0,0,0-.395-.962,1.385,1.385,0,0,0-.738-.467,3.046,3.046,0,0,0-.684-.078h0a2.967,2.967,0,0,0-.629.068l-.019,0Zm13.22-.874-.612,3.851,2.507-.442Zm-120.4,11.918-.078-.437-2.259-12.818.438-.077,8.213-1.447.438,2.5-.437.077-5.455.96.508,2.884,5.485-.966.437,2.484-.437.077-5.047.891.511,2.9,5.959-1.05.445,2.493Zm-211.542-.608-.077-.438-2.259-12.818,4.852-.856a5.776,5.776,0,0,1,2.652.076h.007a3.763,3.763,0,0,1,1.906,1.254l.007.007a4.679,4.679,0,0,1,.927,2.146,4.575,4.575,0,0,1-.147,2.324l0,.007a3.688,3.688,0,0,1-1.287,1.745l3.151,3.933,2.264-13.165.308-.054,2.486-.436.155.271,6.947,12.145-2.931.516-1.709-3.072-4.2.74-.555,3.471-5.275.932-.165-.209-3.172-4.021-1.952.345.824,4.671Zm.855-11.253.637,3.6,1.928-.339a3.252,3.252,0,0,0,1.255-.452,1.3,1.3,0,0,0,.523-.66,2.077,2.077,0,0,0,.041-1.018l0-.026a2.168,2.168,0,0,0-.4-.964,1.351,1.351,0,0,0-.736-.466,3.022,3.022,0,0,0-1.319-.013l-.016,0Zm13.222-.878-.612,3.856,2.509-.444Zm416.06,12.106-2.34-13.256.438-.077,8.124-1.432.44,2.5-5.807,1.022.511,2.883,5.251-.928.44,2.486-5.255.928.949,5.39Zm-317.867-.815-.077-.437-2.26-12.821.438-.077,8.123-1.432.438,2.5-.437.077-5.365.945.508,2.884,5.254-.925.436,2.487-.437.077-4.813.848.95,5.392Zm327.551-.893-.077-.437-2.26-12.818,2.757-.488,1.9,10.763,5.6-.987.44,2.5-.437.077Zm-317.863-.815-.077-.437-2.259-12.818,2.752-.487,1.9,10.76,5.6-.987.44,2.5-.437.077Zm218.219-.567-2.34-13.26.438-.077,8.122-1.432.443,2.5-5.807,1.025.51,2.881,5.251-.925.441,2.486-5.256.925.95,5.392Zm215.278-.05-2.34-13.256,4.855-.856a5.716,5.716,0,0,1,1.164-.12,5.778,5.778,0,0,1,1.484.194l0,0a3.754,3.754,0,0,1,1.911,1.25l.008.009a4.669,4.669,0,0,1,.924,2.148,4.569,4.569,0,0,1-.144,2.324l0,.009a3.708,3.708,0,0,1-1.288,1.742l3.149,3.933,2.268-13.164,2.794-.495,7.1,12.417-2.928.52-.154-.277-1.554-2.8-4.2.742-.552,3.471-.312.055-2.564.451-2.4.426-3.339-4.229-1.95.344.824,4.67Zm.856-11.253.636,3.6,1.929-.34a3.216,3.216,0,0,0,1.254-.454,1.3,1.3,0,0,0,.523-.656,2.054,2.054,0,0,0,.037-1.019l0-.028a2.135,2.135,0,0,0-.394-.96,1.347,1.347,0,0,0-.738-.47,3.021,3.021,0,0,0-1.321-.013l-.015,0Zm13.22-.878-.613,3.853,2.508-.441Zm-120.4,11.924-2.34-13.255,8.651-1.527.438,2.5-5.894,1.041.51,2.881,5.484-.965.436,2.486-.437.078-5.046.888.511,2.9,5.962-1.05.44,2.5-.437.077Zm-426.822-.561-2.337-13.256.438-.077,8.121-1.432.44,2.5-.437.077-5.365.945.508,2.883,5.254-.928.436,2.487-.437.077-4.813.848.95,5.392Zm215.281-.051-.077-.437-2.263-12.818.438-.077,4.418-.78a5.7,5.7,0,0,1,2.651.08,3.763,3.763,0,0,1,1.914,1.251l.008.01a4.7,4.7,0,0,1,.922,2.144,4.561,4.561,0,0,1-.144,2.326l0,.009a3.714,3.714,0,0,1-1.29,1.746l3.151,3.933,2.264-13.165,2.795-.495.154.271,6.948,12.146-2.928.516-1.709-3.072-4.2.739-.555,3.474-2.873.507-2.4.421-.165-.208-3.174-4.02-1.95.344.824,4.674Zm.855-11.252.634,3.6,1.931-.339a3.289,3.289,0,0,0,1.253-.452h0a1.279,1.279,0,0,0,.521-.656,2.093,2.093,0,0,0,.042-1.021l0-.026a2.2,2.2,0,0,0-.395-.964,1.383,1.383,0,0,0-.738-.467,3.117,3.117,0,0,0-1.322-.012l-.013,0Zm13.219-.873-.611,3.851,2.508-.441Zm-120.4,11.918-.077-.437-2.26-12.818.438-.077,8.214-1.447.438,2.5-.437.077-5.456.96.508,2.883,5.482-.969.44,2.488-5.484.966.511,2.9,5.96-1.05.439,2.493-.437.077Zm218.595-.633-2.339-13.256.438-.077,8.121-1.432.444,2.5-5.807,1.022.51,2.883,5.251-.928.44,2.487-5.255.925.949,5.392Zm-317.866-.815-.077-.437-2.26-12.822.438-.077,8.122-1.431.44,2.5-.437.078-5.366.945.508,2.883,5.255-.925.436,2.483-5.252.928.95,5.392Zm327.551-.894-.077-.437-2.259-12.817,2.755-.487,1.9,10.763,5.6-.988.439,2.493-.437.077Zm218.219-.567-.077-.437-2.259-12.818.438-.077,8.121-1.431.44,2.5-.437.077-5.368.945.509,2.883,5.251-.927.441,2.487-5.255.925.953,5.392Zm-536.082-.248-.078-.437-2.259-12.817,2.753-.488,1.9,10.76,5.6-.987.44,2.5-.437.077Zm218.219-.567-2.34-13.259.438-.077,8.122-1.431.439,2.5-5.8,1.025.51,2.88,5.252-.925.439,2.487-.438.077-4.816.848.95,5.392Zm215.278-.051-2.339-13.255.438-.077,4.417-.78a5.773,5.773,0,0,1,2.649.076h.006a3.784,3.784,0,0,1,1.91,1.25l.009.011a4.7,4.7,0,0,1,.922,2.147,4.565,4.565,0,0,1-.145,2.323l0,.01a3.7,3.7,0,0,1-1.288,1.741l3.149,3.934,2.267-13.165,2.795-.49.155.271,6.943,12.145-2.928.516-.154-.277-1.554-2.8-4.2.742-.552,3.471-.312.055-2.564.451-2.4.426-.165-.209-3.172-4.02-1.949.343.824,4.671Zm.856-11.252.635,3.6,1.929-.339a3.312,3.312,0,0,0,1.256-.453,1.334,1.334,0,0,0,.523-.66,2.069,2.069,0,0,0,.037-1.017l0-.026a2.141,2.141,0,0,0-.4-.963,1.366,1.366,0,0,0-.737-.467,3.018,3.018,0,0,0-1.32-.013l-.016,0Zm13.22-.878-.613,3.856,2.509-.444Zm-120.4,11.924-2.339-13.259.438-.078,8.214-1.447.438,2.5-.437.077-5.456.964.51,2.88,5.484-.966.436,2.487-.437.077-5.046.888.51,2.9,5.963-1.05.44,2.5-.437.077Zm-211.544-.612-.077-.437-2.259-12.818.438-.077,4.418-.779a5.711,5.711,0,0,1,2.65.079,3.744,3.744,0,0,1,1.913,1.253l0,.007a4.66,4.66,0,0,1,.927,2.145,4.553,4.553,0,0,1-.144,2.325l0,.009a3.716,3.716,0,0,1-1.289,1.746l3.15,3.933,2.263-13.165,2.8-.495.154.272,6.948,12.145-2.929.516-1.708-3.073-4.2.74-.555,3.474-2.874.506-2.4.422-.164-.208-3.172-4.021-1.952.344.824,4.675Zm.859-11.252.633,3.6,1.928-.34a3.228,3.228,0,0,0,1.259-.455,1.3,1.3,0,0,0,.521-.653,2.108,2.108,0,0,0,.04-1.022l0-.027a2.176,2.176,0,0,0-.394-.962,1.385,1.385,0,0,0-.738-.467,3.031,3.031,0,0,0-1.319-.012l-.016,0Zm13.22-.872-.612,3.85,2.508-.441Zm416.058,12.1-.077-.437-2.259-12.818.438-.077,8.121-1.432.439,2.5-.437.077-5.368.944.51,2.884,5.251-.925.441,2.483-5.256.928.954,5.393Zm-536.459-.181-.077-.437-2.26-12.818.438-.077,8.213-1.447.44,2.5-.437.078-5.457.96.507,2.883,5.484-.968.438,2.486-5.482.968.51,2.9,5.961-1.053.076.438.362,2.058-.437.077Zm218.595-.633-2.339-13.256.438-.077,8.125-1.431.439,2.493-5.806,1.025.509,2.884,5.252-.928.439,2.487-.437.077-4.816.848.95,5.392Zm327.549-.891-.078-.437-2.259-12.822,2.756-.482.077.437,1.819,10.322,5.6-.987.44,2.5-.437.077Zm-317.864-.818-.077-.437-2.259-12.818,2.756-.488,1.9,10.764,5.6-.988.439,2.493-.437.077Zm218.219-.567-.077-.438-2.259-12.818.438-.077,8.123-1.432.438,2.5-.437.077-5.368.945.51,2.883,5.252-.928.439,2.487-.437.077-4.817.848.953,5.392Zm108.956-.258-2.34-13.255,8.651-1.528.076.438.362,2.058-5.891,1.041.507,2.883,5.483-.968.441,2.487-5.487.966.513,2.9,5.96-1.054.439,2.5-.437.077Zm-426.819-.557-2.34-13.26.438-.078,8.121-1.431.445,2.5-5.808,1.025.511,2.881,5.251-.925.44,2.486-5.255.925.949,5.392Zm215.278-.051-2.34-13.256.438-.077,4.42-.779a5.735,5.735,0,0,1,2.649.075,3.767,3.767,0,0,1,1.914,1.252l.009.01a4.7,4.7,0,0,1,.922,2.144,4.569,4.569,0,0,1-.145,2.327l0,.01a3.72,3.72,0,0,1-1.289,1.742l3.149,3.934,2.264-13.165,2.794-.495,7.1,12.417-2.928.516-.154-.276-1.555-2.8-4.2.743-.552,3.471-.312.055-2.564.451-2.4.426-.165-.208-3.173-4.024-1.947.344.821,4.674Zm.856-11.253.635,3.6,1.929-.339a3.241,3.241,0,0,0,1.257-.458,1.3,1.3,0,0,0,.521-.653,2.107,2.107,0,0,0,.038-1.018l0-.028a2.193,2.193,0,0,0-.395-.965,1.382,1.382,0,0,0-.738-.467,3.044,3.044,0,0,0-1.319-.009l-.016,0Zm13.221-.878-.614,3.853,2.509-.441Zm-120.4,11.924-2.34-13.259.438-.077,8.213-1.447.439,2.5-5.894,1.041.51,2.881,5.484-.965.435,2.486-.437.078-5.046.888.511,2.9,5.962-1.05.44,2.5-.437.077Zm-211.544-.612-.077-.437-2.26-12.818,4.857-.857a5.716,5.716,0,0,1,2.648.08,3.736,3.736,0,0,1,1.912,1.252l.006.007a4.665,4.665,0,0,1,.927,2.145,4.573,4.573,0,0,1-.144,2.325l0,.009a3.708,3.708,0,0,1-1.287,1.745l3.148,3.934,2.265-13.168.308-.054,2.486-.437.155.271,6.947,12.146-2.928.516-1.709-3.072-4.2.74-.555,3.474-.312.055-1.823.32h0l-3.142.551-.164-.208-3.173-4.021-1.951.344.824,4.675Zm.859-11.252.633,3.6,1.931-.339a3.253,3.253,0,0,0,1.256-.456,1.3,1.3,0,0,0,.52-.652,2.093,2.093,0,0,0,.04-1.021l0-.027a2.194,2.194,0,0,0-.4-.963,1.383,1.383,0,0,0-.74-.467,3.051,3.051,0,0,0-1.317-.012l-.015,0Zm13.216-.876-.61,3.854,2.509-.442Zm416.061,12.107-.077-.438-2.259-12.822.438-.077,8.122-1.431.438,2.5-.437.077-5.368.945.51,2.883,5.252-.925.439,2.483-5.255.928.953,5.393Zm-317.863-.818-2.34-13.256,8.558-1.512.445,2.5-5.807,1.025.51,2.884,5.251-.929.441,2.487-5.256.925.95,5.392Zm327.547-.891-.077-.437-2.259-12.822,2.757-.483.077.437,1.819,10.322,5.6-.988.44,2.5-.437.077Zm-317.862-.819-.077-.437-2.26-12.817,2.752-.487,1.9,10.763,5.6-.988.076.438.362,2.055-.437.077Zm218.219-.566-2.341-13.256,8.559-1.512.445,2.5-5.808,1.025.511,2.884,5.251-.928.441,2.487-5.256.925.953,5.392Zm108.956-.258-2.341-13.256.438-.077,8.212-1.447.444,2.493-5.894,1.041.507,2.883,5.483-.969.436,2.487-.437.077-5.045.888.51,2.9,5.963-1.053.439,2.5-.437.077Zm-426.823-.562-.077-.437-2.259-12.818.438-.077,8.12-1.432.44,2.5-.437.077-5.365.945.508,2.883,5.253-.925.441,2.484-5.255.928.949,5.393Zm215.281-.047-2.34-13.255,4.858-.857a5.732,5.732,0,0,1,2.648.077,3.765,3.765,0,0,1,1.914,1.25l.009.01a4.7,4.7,0,0,1,.922,2.147,4.56,4.56,0,0,1-.145,2.324l0,.009a3.711,3.711,0,0,1-1.288,1.742l3.149,3.934,2.265-13.165,2.795-.494.154.271,6.948,12.145-2.928.52-1.71-3.076-4.2.743-.551,3.471-5.279.932-.165-.209-3.172-4.021-1.949.344.824,4.671Zm.856-11.252.636,3.6,1.928-.339a3.246,3.246,0,0,0,1.257-.457,1.319,1.319,0,0,0,.521-.654,2.1,2.1,0,0,0,.038-1.018l0-.028a2.192,2.192,0,0,0-.395-.965,1.359,1.359,0,0,0-.737-.464,3.021,3.021,0,0,0-1.321-.013l-.015,0Zm13.219-.875-.612,3.85,2.508-.442Zm-120.4,11.917-.077-.437-2.259-12.818.438-.077,8.212-1.447.44,2.5-5.894,1.041.507,2.88,5.486-.965.437,2.484-.437.077-5.046.891.511,2.9,5.964-1.051.438,2.5-.437.077Zm-211.54-.608-2.337-13.256.438-.077,4.42-.779a5.754,5.754,0,0,1,2.646.076l.007,0a3.773,3.773,0,0,1,1.907,1.253l.007.007a4.679,4.679,0,0,1,.927,2.145,4.564,4.564,0,0,1-.146,2.326l0,.008a3.7,3.7,0,0,1-1.29,1.743l3.151,3.935,2.264-13.167.308-.055,2.486-.436.154.271,6.948,12.145-2.932.516-1.705-3.073-4.2.74-.555,3.47-2.134.379h0l-.794.14h0l-2.348.412-.164-.208-3.172-4.021-1.953.345.825,4.671Zm.859-11.252.633,3.6,1.928-.339a3.251,3.251,0,0,0,1.259-.455,1.287,1.287,0,0,0,.519-.657,2.063,2.063,0,0,0,.041-1.017l0-.027a2.194,2.194,0,0,0-.4-.962,1.386,1.386,0,0,0-.737-.467,3.035,3.035,0,0,0-1.32-.012l-.015,0Zm13.217-.875-.612,3.853,2.509-.442Zm416.06,12.1-.077-.437-2.263-12.818.438-.077,8.125-1.432.44,2.5-5.807,1.022.511,2.883,5.251-.928.44,2.486-5.255.928.953,5.394Zm-317.867-.814-.077-.437-2.259-12.818,8.558-1.512.445,2.5-5.808,1.025.508,2.881,5.254-.925.441,2.486-5.256.925.95,5.392Zm327.552-.894-.077-.437-2.26-12.818,2.756-.487,1.9,10.763,5.6-.987.438,2.5-.437.077Zm-317.863-.815-.078-.437-2.259-12.818,2.753-.487,1.9,10.763,5.6-.988.44,2.493-.437.077Zm218.219-.567-2.34-13.256,8.558-1.509.445,2.493-5.808,1.025.511,2.884,5.251-.928.44,2.487-5.255.925.953,5.392Zm215.277-.05-.077-.438-2.259-12.818,4.852-.856a5.794,5.794,0,0,1,2.652.075l.008,0a3.772,3.772,0,0,1,1.907,1.254l0,.007a4.628,4.628,0,0,1,.924,2.146,4.558,4.558,0,0,1-.145,2.324l0,.009a3.7,3.7,0,0,1-1.289,1.742l3.152,3.94,2.264-13.172,2.795-.49.155.271,6.944,12.145-2.928.516-1.709-3.072-4.2.74-.55,3.47-2.929.52h0l-2.349.413-.165-.208-3.174-4.021-1.95.344.825,4.671Zm.857-11.253.635,3.6,1.929-.339a3.238,3.238,0,0,0,1.258-.455,1.3,1.3,0,0,0,.52-.657,2.061,2.061,0,0,0,.038-1.018l0-.031a2.111,2.111,0,0,0-.394-.958,1.38,1.38,0,0,0-.734-.468,3.066,3.066,0,0,0-1.32-.013l-.016,0Zm13.22-.878-.614,3.856,2.509-.442Zm-120.4,11.923-2.339-13.255,8.649-1.527.44,2.5-5.895,1.041.511,2.884,5.483-.969.436,2.487-.437.077-5.045.889.51,2.9,5.964-1.053.076.438.362,2.058-.437.077Zm-426.822-.557-.078-.438-2.258-12.822.438-.077,8.122-1.431.438,2.5-.437.077-5.365.945.508,2.884,5.254-.925.436,2.483-5.251.928.95,5.392Zm215.281-.05-2.34-13.26.438-.077,4.42-.776a5.72,5.72,0,0,1,2.647.076,3.763,3.763,0,0,1,1.915,1.251l.008.01a4.7,4.7,0,0,1,.924,2.145,4.587,4.587,0,0,1-.145,2.326l0,.01a3.722,3.722,0,0,1-1.288,1.741l3.148,3.933,2.264-13.164,2.795-.5,7.1,12.417-2.929.516-.154-.276-1.554-2.8-4.2.743-.555,3.471-2.135.375h0l-3.143.551-.164-.208-3.174-4.02-1.947.344.821,4.673Zm.856-11.255.633,3.6,1.935-.342a3.194,3.194,0,0,0,1.252-.454,1.3,1.3,0,0,0,.522-.653,2.132,2.132,0,0,0,.038-1.021l-.006-.028a2.163,2.163,0,0,0-.394-.961,1.383,1.383,0,0,0-.739-.468,3.07,3.07,0,0,0-1.318-.009l-.017,0Zm13.219-.873-.612,3.85,2.508-.441Zm-120.4,11.921-.077-.438-2.259-12.822.438-.077,8.212-1.447.44,2.5-.437.077-5.457.961.508,2.883,5.487-.965.436,2.483-5.483.969.511,2.9,5.958-1.05.445,2.493-.438.077Zm218.6-.637-.077-.437-2.262-12.818.438-.077,8.12-1.431.445,2.5-5.808,1.022.51,2.883,5.251-.925.441,2.483-5.255.928.953,5.393Zm-317.867-.814-.077-.438-2.259-12.818,8.561-1.512.076.438.362,2.058-5.8,1.025.507,2.88,5.256-.925.436,2.487-.437.077-4.813.848.949,5.392Zm327.552-.891-.077-.437-2.26-12.822,2.756-.483.077.438,1.82,10.322,5.6-.988.439,2.5-.437.077Zm218.219-.571-.077-.437-2.26-12.818.438-.077,8.122-1.432.439,2.5-.437.077-5.368.945.51,2.883,5.251-.925.441,2.484-5.253.928.95,5.394Zm-536.083-.247-.077-.437-2.26-12.818,2.754-.487,1.9,10.763,5.6-.988.44,2.493-.437.077Zm218.22-.567-2.34-13.256,8.56-1.512.077.438.361,2.058-5.8,1.025.51,2.881,5.251-.925.44,2.487-5.255.925.949,5.392Zm108.955-.257-2.339-13.256,8.648-1.528.445,2.5-5.9,1.041.51,2.883,5.485-.969.435,2.487-.437.078-5.046.888.51,2.9,5.963-1.053.44,2.5-.437.077Zm218.593-.633-.077-.438-2.26-12.822.438-.077,8.121-1.432.44,2.5-5.806,1.025.51,2.881,5.255-.925.437,2.487-.437.077-4.814.848.95,5.392Zm-536.459-.186-.077-.437-2.26-12.818.438-.077,8.214-1.447.438,2.5-.437.077-5.456.96.508,2.883,5.482-.965.44,2.483-5.484.968.511,2.9,5.958-1.051.445,2.493Zm218.595-.633-2.339-13.256.438-.077,8.124-1.432.439,2.5-.437.077-5.368.945.51,2.883,5.251-.928.441,2.487-5.256.925.95,5.392Zm327.551-.891-2.34-13.255,2.757-.487.077.438,1.819,10.325,5.6-.991.44,2.5-.437.077Zm-317.866-.818-.077-.437-2.26-12.818,2.756-.487,1.9,10.763,5.6-.987.44,2.493-.437.077Zm327.175-.825-.077-.437-2.26-12.818.438-.077,8.208-1.446.445,2.5-5.895,1.038.508,2.883,5.482-.965.439,2.483-5.482.969.51,2.9,5.96-1.05.439,2.493-.437.077Zm-317.864-.815-2.339-13.255,8.65-1.528.077.438.361,2.058-5.893,1.041.509,2.884,5.484-.969.437,2.487-.437.077-5.047.889.511,2.9,5.963-1.05.44,2.5-.437.077Z" transform="translate(-13527.529 -4384.425)" fill="url(#linear-gradient-2)"/>
  </g>
</svg>
