<svg xmlns="http://www.w3.org/2000/svg" width="18.916" height="17.018" viewBox="0 0 18.916 17.018">
  <path id="_0xff34" data-name="0xff34" d="M9.291-5.491.535-14.246a.664.664,0,0,0-.527-.2.69.69,0,0,0-.527.187L-9.274-5.508a.74.74,0,0,0-.2.518.7.7,0,0,0,.212.51.727.727,0,0,0,.51.221.708.708,0,0,0,.519-.2l.7-.714V1.819a.734.734,0,0,0,.213.527.692.692,0,0,0,.518.221H6.809a.726.726,0,0,0,.731-.731v-7l.7.714a.725.725,0,0,0,.5.153.712.712,0,0,0,.476-.212.749.749,0,0,0,.221-.476A.692.692,0,0,0,9.291-5.491Zm-3.213,6.6H-6.078V-6.63L.008-12.7,6.077-6.63Z" transform="translate(9.478 14.451)" fill="#101010"/>
</svg>
