<svg xmlns="http://www.w3.org/2000/svg" width="12" height="12" viewBox="0 0 12 12">
  <path id="_0xff32" data-name="0xff32" d="M6-10.2a5.991,5.991,0,0,0-2.34.468,6,6,0,0,0-1.9,1.29,6,6,0,0,0-1.29,1.9A5.991,5.991,0,0,0,0-4.2,5.991,5.991,0,0,0,.468-1.86a6,6,0,0,0,1.29,1.9,6,6,0,0,0,1.9,1.29A5.991,5.991,0,0,0,6,1.8a5.991,5.991,0,0,0,2.34-.468,6,6,0,0,0,1.9-1.29,6,6,0,0,0,1.29-1.9A5.991,5.991,0,0,0,12-4.2a5.991,5.991,0,0,0-.468-2.34,6,6,0,0,0-1.29-1.9,6,6,0,0,0-1.9-1.29A5.991,5.991,0,0,0,6-10.2ZM6,.708A4.783,4.783,0,0,1,3.528.036,4.784,4.784,0,0,1,1.764-1.728,4.783,4.783,0,0,1,1.092-4.2a4.783,4.783,0,0,1,.672-2.472A4.784,4.784,0,0,1,3.528-8.436,4.783,4.783,0,0,1,6-9.108a4.783,4.783,0,0,1,2.472.672,4.784,4.784,0,0,1,1.764,1.764A4.783,4.783,0,0,1,10.908-4.2a4.783,4.783,0,0,1-.672,2.472A4.784,4.784,0,0,1,8.472.036,4.783,4.783,0,0,1,6,.708Zm.552-5.136V-7.476A.512.512,0,0,0,6.39-7.86.542.542,0,0,0,6-8.016a.522.522,0,0,0-.384.156.522.522,0,0,0-.156.384V-4.2a.364.364,0,0,0,.012.108v.012a.107.107,0,0,1,.012.048l.048.12.024.024a.32.32,0,0,0,.06.084L7.164-2.268a.556.556,0,0,0,.39.156.525.525,0,0,0,.384-.162A.525.525,0,0,0,8.1-2.658a.5.5,0,0,0-.168-.378Z" transform="translate(0 10.2)" fill="#101010"/>
</svg>
