<svg xmlns="http://www.w3.org/2000/svg" width="22" height="25.1" viewBox="0 0 22 25.1">
  <g id="검색" transform="translate(-292 -26)">
    <path id="패스" d="M10.149,1.645,4.071-4.825C4.683-5.51,1.645-2.9,2.388-3.383L8.509,3.132a1.078,1.078,0,0,0,.765.35,1.107,1.107,0,0,0,.809-.284,1.045,1.045,0,0,0,.372-.765A1,1,0,0,0,10.149,1.645Z" transform="translate(303.544 47.617)" fill="#101010"/>
    <g id="타원" transform="translate(292 26)" fill="none">
      <path d="M10,0A10,10,0,1,1,0,10,10,10,0,0,1,10,0Z" stroke="none"/>
      <path d="M 10 1.799999237060547 C 5.478500366210938 1.799999237060547 1.799999237060547 5.478500366210938 1.799999237060547 10 C 1.799999237060547 14.52149963378906 5.478500366210938 18.20000076293945 10 18.20000076293945 C 14.52149963378906 18.20000076293945 18.20000076293945 14.52149963378906 18.20000076293945 10 C 18.20000076293945 5.478500366210938 14.52149963378906 1.799999237060547 10 1.799999237060547 M 10 0 C 15.52285003662109 0 20 4.477149963378906 20 10 C 20 15.52285003662109 15.52285003662109 20 10 20 C 4.477149963378906 20 0 15.52285003662109 0 10 C 0 4.477149963378906 4.477149963378906 0 10 0 Z" stroke="none" fill="#101010"/>
    </g>
  </g>
</svg>
