<svg xmlns="http://www.w3.org/2000/svg" width="30.676" height="30.966" viewBox="0 0 30.676 30.966">
  <g id="icon_belll" transform="translate(-175.469 -259)">
    <path id="_0xee4e" data-name="0xee4e" d="M14.473.633a12.222,12.222,0,0,1-1.4-1.912A26.772,26.772,0,0,1,11.888-3.89a28.052,28.052,0,0,1-.835-3.339,35.438,35.438,0,0,1-.3-4.228,6.981,6.981,0,0,0-1.912-4.578,7.959,7.959,0,0,0-4.955-2.585l-.377-.054Q3-18.7,2.463-18.7t-1.023.027l-.4.054a7.873,7.873,0,0,0-4.928,2.572A6.787,6.787,0,0,0-5.8-11.457Q-5.965-8.6-6.126-7.229A16.793,16.793,0,0,1-6.934-3.89,23.648,23.648,0,0,1-8.146-1.278,8.942,8.942,0,0,1-9.519.633,15.6,15.6,0,0,1-11,2.087a2.113,2.113,0,0,0,.619,1.454,1.977,1.977,0,0,0,1.454.592h6.974a5.524,5.524,0,0,0,.525,1.494,5.015,5.015,0,0,0,1.01,1.36A3.729,3.729,0,0,0,2.463,8.227,3.813,3.813,0,0,0,5.372,6.988,5.534,5.534,0,0,0,6.96,4.134h6.893a1.977,1.977,0,0,0,1.468-.619,1.982,1.982,0,0,0,.606-1.427Q15.173,1.387,14.473.633ZM2.463,6.746a2.477,2.477,0,0,1-1.346-.39A2.758,2.758,0,0,1,.148,5.319,2.74,2.74,0,0,1-.2,4l5.332-.027a2.714,2.714,0,0,1-.35,1.333A2.9,2.9,0,0,1,3.81,6.342,2.417,2.417,0,0,1,2.463,6.746ZM-8.415,2.384q4.47-5.062,4.47-13.975a4.335,4.335,0,0,1,.4-1.75,5.909,5.909,0,0,1,1.158-1.723,4.988,4.988,0,0,1,1.993-1.36A7.479,7.479,0,0,1,2.45-16.95a7.686,7.686,0,0,1,2.868.525A4.88,4.88,0,0,1,7.31-15.092a5.91,5.91,0,0,1,1.158,1.723,4.662,4.662,0,0,1,.4,1.777q0,8.913,4.47,13.975Z" transform="translate(188.344 281.739)" fill="#b8b8b9"/>
    <path id="패스_29206" data-name="패스 29206" d="M-256.389,5107.292a10.457,10.457,0,0,1-.645,3.6l1.609.585a12.176,12.176,0,0,0,.749-4.183,12.235,12.235,0,0,0-8.057-11.49l-.587,1.612A10.535,10.535,0,0,1-256.389,5107.292Z" transform="translate(460.82 -4836.802)" fill="#b8b8b9"/>
    <path id="패스_29207" data-name="패스 29207" d="M-261.606,5107.293a10.459,10.459,0,0,0,.645,3.6l-1.61.585a12.171,12.171,0,0,1-.749-4.182,12.236,12.236,0,0,1,8.058-11.491l.588,1.612A10.536,10.536,0,0,0-261.606,5107.293Z" transform="translate(438.789 -4836.802)" fill="#b8b8b9"/>
  </g>
</svg>
