<svg xmlns="http://www.w3.org/2000/svg" width="18" height="15.876" viewBox="0 0 18 15.876">
  <g id="heart" transform="translate(0 14.238)" fill="none">
    <path d="M13.212-14.238a4.174,4.174,0,0,0-2.646.918A6.309,6.309,0,0,0,9-11.448,5.729,5.729,0,0,0,7.452-13.32a4.248,4.248,0,0,0-2.664-.918,4.581,4.581,0,0,0-2.448.675A4.687,4.687,0,0,0,.621-11.7,5.624,5.624,0,0,0,0-9.054,5.559,5.559,0,0,0,.468-6.822a8.121,8.121,0,0,0,1.3,2.07A20.07,20.07,0,0,0,3.8-2.682q.792.738,2.646,2.3l.54.45q1.062.936,1.638,1.44a.63.63,0,0,0,.756,0q.576-.5,1.638-1.44l.54-.45q1.836-1.548,2.646-2.3a20.07,20.07,0,0,0,2.034-2.07,8.121,8.121,0,0,0,1.3-2.07A5.559,5.559,0,0,0,18-9.054a5.624,5.624,0,0,0-.621-2.646,4.687,4.687,0,0,0-1.719-1.863A4.581,4.581,0,0,0,13.212-14.238Z" stroke="none"/>
    <path d="M 4.788000106811523 -12.9379997253418 C 4.126970291137695 -12.9379997253418 3.548919677734375 -12.78017997741699 3.020819664001465 -12.45553016662598 C 2.48738956451416 -12.12760925292969 2.079259872436523 -11.68347930908203 1.773090362548828 -11.09776973724365 C 1.454750061035156 -10.48876953125 1.299999237060547 -9.820240020751953 1.299999237060547 -9.053999900817871 C 1.299999237060547 -8.460209846496582 1.41802978515625 -7.899189949035645 1.660820007324219 -7.338889598846436 L 1.670530319213867 -7.315889835357666 C 1.895139694213867 -6.768999576568604 2.263070106506348 -6.185829639434814 2.764080047607422 -5.582569599151611 L 2.767510414123535 -5.57841968536377 C 3.228420257568359 -5.018739700317383 3.867980003356934 -4.369119644165039 4.668410301208496 -3.647609710693359 L 4.684240341186523 -3.633090019226074 C 5.193870544433594 -3.158212661743164 6.066858291625977 -2.398292541503906 7.279053688049316 -1.374344825744629 L 7.843560218811035 -0.9032697677612305 C 8.293056488037109 -0.5071039199829102 8.67989444732666 -0.1666660308837891 9 0.1144657135009766 C 9.32010555267334 -0.1666660308837891 9.706943511962891 -0.5071039199829102 10.15643978118896 -0.9032697677612305 L 10.18375968933105 -0.9266901016235352 L 10.72072601318359 -1.374161720275879 C 11.92101669311523 -2.386199951171875 12.79380226135254 -3.145926475524902 13.31499004364014 -3.632369995117188 L 13.33159065246582 -3.647609710693359 C 14.13201999664307 -4.369119644165039 14.77157974243164 -5.018739700317383 15.23249053955078 -5.57841968536377 L 15.23591995239258 -5.582569599151611 C 15.73692989349365 -6.185829639434814 16.10486030578613 -6.768999576568604 16.32946968078613 -7.315889835357666 L 16.33917999267578 -7.338889598846436 C 16.58197021484375 -7.899189949035645 16.70000076293945 -8.460209846496582 16.70000076293945 -9.053999900817871 C 16.70000076293945 -9.820240020751953 16.54524993896484 -10.48876953125 16.22690963745117 -11.09776973724365 C 15.92074012756348 -11.68347930908203 15.51260948181152 -12.12760925292969 14.97918033599854 -12.45553016662598 C 14.45108032226562 -12.78017997741699 13.8730297088623 -12.9379997253418 13.21199989318848 -12.9379997253418 C 12.52101993560791 -12.9379997253418 11.91800022125244 -12.72840976715088 11.36847019195557 -12.29723930358887 L 11.36266994476318 -12.29270935058594 C 10.9116096496582 -11.94291973114014 10.49573993682861 -11.44046974182129 10.12660980224609 -10.79934978485107 L 8.961979866027832 -8.776569366455078 L 7.855389595031738 -10.83166980743408 C 7.52538013458252 -11.44454956054688 7.123970031738281 -11.93430995941162 6.662309646606445 -12.28732967376709 L 6.657119750976562 -12.2913293838501 C 6.093990325927734 -12.72646999359131 5.482600212097168 -12.9379997253418 4.788000106811523 -12.9379997253418 M 4.788000106811523 -14.23799991607666 C 5.772000312805176 -14.23799991607666 6.659999847412109 -13.93199920654297 7.451999664306641 -13.31999969482422 C 8.064000129699707 -12.85199928283691 8.579999923706055 -12.22799968719482 9 -11.44799995422363 C 9.456000328063965 -12.23999977111816 9.977999687194824 -12.86399936676025 10.56599998474121 -13.31999969482422 C 11.34600067138672 -13.93199920654297 12.22800064086914 -14.23799991607666 13.21199989318848 -14.23799991607666 C 14.11199951171875 -14.23799991607666 14.92799949645996 -14.01299953460693 15.65999984741211 -13.5629997253418 C 16.39200019836426 -13.11299991607666 16.96500015258789 -12.49199962615967 17.37899971008301 -11.69999980926514 C 17.79299926757812 -10.90799999237061 18 -10.02600002288818 18 -9.053999900817871 C 18 -8.285999298095703 17.8439998626709 -7.541999816894531 17.5319995880127 -6.821999549865723 C 17.25600051879883 -6.149999618530273 16.82399940490723 -5.459999561309814 16.23600006103516 -4.751999855041504 C 15.73200035095215 -4.139999389648438 15.05399990081787 -3.449999809265137 14.20199966430664 -2.682000160217285 C 13.66200065612793 -2.177999496459961 12.78000068664551 -1.409999847412109 11.55599975585938 -0.3779993057250977 L 11.01599979400635 0.07200050354003906 C 10.3080005645752 0.6960000991821289 9.76200008392334 1.176000595092773 9.378000259399414 1.51200008392334 C 9.281999588012695 1.596000671386719 9.156000137329102 1.63800048828125 9 1.63800048828125 C 8.843999862670898 1.63800048828125 8.718000411987305 1.596000671386719 8.621999740600586 1.51200008392334 C 8.23799991607666 1.176000595092773 7.692000389099121 0.6960000991821289 6.984000205993652 0.07200050354003906 L 6.444000244140625 -0.3779993057250977 C 5.208000183105469 -1.421999931335449 4.326000213623047 -2.189999580383301 3.798000335693359 -2.682000160217285 C 2.946000099182129 -3.449999809265137 2.267999649047852 -4.139999389648438 1.763999938964844 -4.751999855041504 C 1.176000595092773 -5.459999561309814 0.7439994812011719 -6.149999618530273 0.4680004119873047 -6.821999549865723 C 0.1560001373291016 -7.541999816894531 0 -8.285999298095703 0 -9.053999900817871 C 0 -10.02600002288818 0.207000732421875 -10.90799999237061 0.6210002899169922 -11.69999980926514 C 1.034999847412109 -12.49199962615967 1.607999801635742 -13.11299991607666 2.340000152587891 -13.5629997253418 C 3.071999549865723 -14.01299953460693 3.887999534606934 -14.23799991607666 4.788000106811523 -14.23799991607666 Z" stroke="none" fill="#101010"/>
  </g>
</svg>
