<svg width="100" height="32" viewBox="0 0 100 32" fill="none" xmlns="http://www.w3.org/2000/svg">
<path d="M18.8207 8.28657L18.1029 11.6312C21.5785 11.0951 24.5704 12.0153 25.4897 14.1597C26.7154 17.0402 23.8043 21.0089 18.982 23.0333C17.9095 23.4894 16.8289 23.8095 15.7887 23.9935C15.6192 24.0335 15.4741 23.8814 15.5064 23.7134L16.224 20.3688C12.7485 20.9049 9.75677 19.9847 8.82937 17.8323C7.60367 14.9598 10.5228 10.9911 15.345 8.96667C16.4175 8.51056 17.4981 8.19046 18.5384 8.00646C18.7078 7.96646 18.8529 8.11857 18.8207 8.28657Z" fill="#888888"/>
<path d="M29.7818 18.113V14.624H27.9658V12.784H29.7818V10.576L32.0058 9.98401V12.784H34.7738V14.624H32.0058V18.084C31.98 18.2723 31.9963 18.4641 32.0536 18.6453C32.1108 18.8266 32.2077 18.9929 32.337 19.1322C32.4664 19.2715 32.625 19.3803 32.8016 19.4509C32.9781 19.5214 33.1681 19.5518 33.3578 19.54C33.7935 19.5612 34.223 19.4312 34.5738 19.172L35.3658 20.828C34.7246 21.2904 33.9479 21.5268 33.1578 21.5C32.7016 21.5485 32.2404 21.4941 31.808 21.3408C31.3756 21.1876 30.9831 20.9394 30.6592 20.6145C30.3354 20.2896 30.0885 19.8962 29.9366 19.4633C29.7848 19.0304 29.7319 18.569 29.7818 18.113Z" fill="#888888"/>
<path fill-rule="evenodd" clip-rule="evenodd" d="M35.4778 17.024C35.4403 16.1014 35.6796 15.1887 36.165 14.4032C36.6504 13.6177 37.3596 12.9954 38.2015 12.6162C39.0434 12.2371 39.9795 12.1184 40.8894 12.2755C41.7993 12.4326 42.6414 12.8583 43.3074 13.4978C43.9734 14.1373 44.4329 14.9614 44.6268 15.8642C44.8207 16.7669 44.7401 17.7071 44.3954 18.5637C44.0507 19.4203 43.4577 20.1542 42.6926 20.671C41.9274 21.1879 41.0252 21.464 40.1018 21.464C39.5028 21.4916 38.9044 21.3969 38.3431 21.1859C37.7818 20.9749 37.2693 20.6519 36.8368 20.2366C36.4042 19.8213 36.0607 19.3223 35.827 18.77C35.5934 18.2177 35.4746 17.6237 35.4778 17.024ZM40.1018 19.48C40.5909 19.4961 41.0737 19.3658 41.4883 19.1058C41.9029 18.8458 42.2304 18.4679 42.4288 18.0205C42.6272 17.5732 42.6875 17.0767 42.602 16.5949C42.5165 16.113 42.289 15.6677 41.9487 15.316C41.6084 14.9643 41.1709 14.7222 40.6921 14.6207C40.2134 14.5193 39.7152 14.5631 39.2616 14.7466C38.8079 14.9301 38.4193 15.2449 38.1457 15.6507C37.8721 16.0564 37.7259 16.5346 37.7258 17.024C37.7117 17.3437 37.7628 17.663 37.8762 17.9623C37.9895 18.2616 38.1626 18.5347 38.3849 18.7649C38.6072 18.9951 38.8741 19.1776 39.1693 19.3012C39.4645 19.4248 39.7818 19.487 40.1018 19.484V19.48Z" fill="#888888"/>
<path d="M47.5108 18.656L45.3028 19.248C45.6028 20.625 47.0468 21.465 49.1188 21.468C51.4868 21.468 52.9428 20.42 52.9428 18.676C52.9428 17.484 52.0468 16.652 50.5748 16.324L48.6468 15.884C48.0708 15.748 47.7268 15.548 47.7268 15.156C47.7268 14.652 48.2388 14.292 48.9988 14.292C49.3666 14.2442 49.7393 14.3286 50.0507 14.53C50.362 14.7315 50.5917 15.037 50.6988 15.392L52.7788 14.832C52.4068 13.448 50.9668 12.584 49.0788 12.584C46.9588 12.584 45.5188 13.696 45.5188 15.36C45.5188 16.552 46.4788 17.392 48.0388 17.72L49.6868 18.064C50.3428 18.2 50.7748 18.472 50.7748 18.84C50.7748 19.344 50.1588 19.728 49.3188 19.728C48.2868 19.728 47.6548 19.344 47.5108 18.656Z" fill="#888888"/>
<path d="M53.4798 19.248L55.6878 18.656C55.8318 19.344 56.4639 19.728 57.4958 19.728C58.3358 19.728 58.9518 19.344 58.9518 18.84C58.9518 18.472 58.5198 18.2 57.8638 18.064L56.2158 17.72C54.6558 17.392 53.6958 16.552 53.6958 15.36C53.6958 13.696 55.1358 12.584 57.2558 12.584C59.1438 12.584 60.5838 13.448 60.9558 14.832L58.8758 15.392C58.7687 15.037 58.539 14.7315 58.2277 14.53C57.9163 14.3286 57.5436 14.2442 57.1758 14.292C56.4158 14.292 55.9038 14.652 55.9038 15.156C55.9038 15.548 56.2478 15.748 56.8238 15.884L58.7518 16.324C60.2238 16.652 61.1198 17.484 61.1198 18.676C61.1198 20.42 59.6638 21.468 57.2958 21.468C55.2318 21.465 53.7918 20.625 53.4798 19.248Z" fill="#888888"/>
<path fill-rule="evenodd" clip-rule="evenodd" d="M79.6249 13.0145C80.1501 13.2494 80.6174 13.5968 80.9938 14.032V12.784H82.3298V21.241H81.0738V19.897C80.6992 20.3621 80.2235 20.7357 79.6829 20.9894C79.1423 21.243 78.551 21.3701 77.9538 21.361C76.8394 21.3049 75.7892 20.8227 75.0202 20.0141C74.2513 19.2055 73.8225 18.1323 73.8225 17.0165C73.8225 15.9007 74.2513 14.8275 75.0202 14.0189C75.7892 13.2103 76.8394 12.7281 77.9538 12.672C78.5292 12.6626 79.0996 12.7795 79.6249 13.0145ZM76.0979 19.1114C76.6396 19.6777 77.379 20.0132 78.1618 20.048C78.5362 20.0561 78.9084 19.9914 79.2574 19.8556C79.6063 19.7198 79.9251 19.5166 80.1955 19.2576C80.4659 18.9987 80.6826 18.6889 80.8334 18.3462C80.9841 18.0034 81.0658 17.6343 81.0738 17.26V16.76C81.0662 16.3854 80.9847 16.016 80.8342 15.6729C80.6837 15.3298 80.467 15.0197 80.1965 14.7604C79.9261 14.5011 79.6072 14.2977 79.258 14.1617C78.9089 14.0257 78.5364 13.9599 78.1618 13.968C77.379 14.0028 76.6396 14.3383 76.0979 14.9046C75.5562 15.4709 75.2539 16.2243 75.2539 17.008C75.2539 17.7917 75.5562 18.5451 76.0979 19.1114Z" fill="#888888"/>
<path d="M89.9868 12.752L87.2188 19.252L84.5188 12.752H83.0498L86.4818 20.809L85.1498 23.952H86.5338L87.6778 21.216L91.4498 12.752H89.9868Z" fill="#888888"/>
<path fill-rule="evenodd" clip-rule="evenodd" d="M67.1108 13.0437C67.6514 12.79 68.2427 12.6629 68.8398 12.672C69.9558 12.7229 71.0091 13.202 71.7809 14.0096C72.5526 14.8173 72.9832 15.8914 72.9832 17.0085C72.9832 18.1256 72.5526 19.1997 71.7809 20.0074C71.0091 20.8151 69.9558 21.2942 68.8398 21.345C68.2645 21.3545 67.694 21.2377 67.1687 21.0027C66.6435 20.7677 66.1762 20.4203 65.7998 19.985V23.945H64.4638V12.8H65.7198V14.136C66.0944 13.6709 66.5701 13.2973 67.1108 13.0437ZM67.5356 19.8543C67.8848 19.9903 68.2572 20.0561 68.6318 20.048V20.044C69.1953 20.0428 69.7464 19.8791 70.2192 19.5724C70.6919 19.2657 71.0661 18.8291 71.2969 18.3151C71.5276 17.801 71.6051 17.2313 71.5201 16.6743C71.435 16.1172 71.1911 15.5966 70.8175 15.1747C70.444 14.7529 69.9566 14.4478 69.4139 14.2961C68.8712 14.1444 68.2963 14.1525 67.7582 14.3195C67.22 14.4864 66.7414 14.8051 66.3798 15.2373C66.0182 15.6695 65.7891 16.1968 65.7198 16.756V17.256C65.7275 17.6306 65.8089 18 65.9594 18.3431C66.11 18.6862 66.3266 18.9963 66.5971 19.2556C66.8675 19.5149 67.1865 19.7183 67.5356 19.8543Z" fill="#888888"/>
</svg>
