<svg width="24" height="24" viewBox="0 0 24 24" fill="none" xmlns="http://www.w3.org/2000/svg">
<g clip-path="url(#clip0_771_155)">
<path d="M12 1C5.92474 1 1 5.50335 1 11.0578C1 15.16 2.73799 17.1189 5.11888 18.9038L5.1303 18.9087V23.7229C5.13014 23.7742 5.14447 23.8246 5.17162 23.8683C5.19878 23.912 5.23771 23.9474 5.28407 23.9705C5.33043 23.9936 5.38235 24.0034 5.43406 23.999C5.48577 23.9945 5.53521 23.9759 5.57682 23.9452L9.74785 20.8845L9.83749 20.9231C10.5508 21.053 11.2747 21.1183 12 21.1181C18.0753 21.1181 23 16.6147 23 11.0602C23 5.50575 18.0753 1 12 1ZM8.31215 13.6039C8.82066 13.6212 9.32062 13.4712 9.73355 13.1773C10.1465 12.8834 10.449 12.4623 10.5936 11.9801H12.189C12.0353 12.8774 11.5587 13.6895 10.847 14.2668C10.1353 14.844 9.23647 15.1476 8.31623 15.1214C7.22242 15.1214 6.17343 14.6919 5.4 13.9273C4.62656 13.1627 4.19205 12.1258 4.19205 11.0445C4.19205 9.96327 4.62656 8.92632 5.4 8.16176C6.17343 7.3972 7.22242 6.96768 8.31623 6.96768C9.24683 6.94138 10.1551 7.25187 10.8705 7.84082C11.5859 8.42978 12.0591 9.25666 12.2013 10.1662H10.6067C10.4813 9.66444 10.1844 9.22093 9.76632 8.91065C9.34822 8.60038 8.83452 8.44239 8.31215 8.46342C7.96647 8.44945 7.62166 8.50686 7.29967 8.63195C6.97768 8.75705 6.68559 8.94709 6.44204 9.18998C6.19848 9.43286 6.0088 9.72324 5.88508 10.0426C5.76137 10.362 5.70632 10.7034 5.72348 11.0449C5.71876 11.3823 5.7825 11.7171 5.91092 12.0297C6.03934 12.3423 6.22986 12.6262 6.47118 12.8648C6.71251 13.1033 6.99976 13.2916 7.31596 13.4186C7.63216 13.5455 7.97089 13.6085 8.31215 13.6039ZM18.8233 14.9643H17.3615V11.7054C17.3792 11.5536 17.3628 11.3998 17.3134 11.255C17.2639 11.1101 17.1828 10.9779 17.0757 10.8677C16.9685 10.7575 16.8381 10.6721 16.6937 10.6175C16.5493 10.5629 16.3945 10.5405 16.2403 10.552C15.4809 10.552 14.9936 11.0111 14.9936 11.9406V14.9651H13.5319V6.99103H14.9936V9.98977C15.1813 9.72481 15.4359 9.51304 15.7321 9.37555C16.0283 9.23805 16.3558 9.17961 16.6819 9.20605C16.9665 9.19567 17.25 9.24526 17.5137 9.3515C17.7774 9.45773 18.0152 9.61819 18.2113 9.82223C18.4231 10.0513 18.5864 10.32 18.6915 10.6125C18.7966 10.9049 18.8414 11.2152 18.8233 11.525V14.9643Z" fill="black"/>
</g>
<defs>
<clipPath id="clip0_771_155">
<rect width="24" height="24" fill="white"/>
</clipPath>
</defs>
</svg>
