<svg xmlns="http://www.w3.org/2000/svg" width="20.002" height="18.599" viewBox="0 0 20.002 18.599">
  <g id="Group_buying" data-name="Group buying" transform="translate(0.002 -0.401)">
    <path id="bag" d="M16989.791,9771h-7.686l-2.107-12h4.3a3.918,3.918,0,0,1,.537-2,4.034,4.034,0,0,1,1.453-1.459,4.04,4.04,0,0,1,4.012,0,4.034,4.034,0,0,1,1.453,1.459,3.954,3.954,0,0,1,.537,2h4.311l-.635,3.579a5.365,5.365,0,0,0-1.191-.32l.354-2.025h-13.652l1.672,9.535h5.895a5.461,5.461,0,0,0,.75,1.23Zm-1.5-14.766a2.652,2.652,0,0,0-1.385.367,2.772,2.772,0,0,0-1,1.007,2.729,2.729,0,0,0-.377,1.391h5.531a2.735,2.735,0,0,0-.371-1.391,2.67,2.67,0,0,0-1.006-1.007A2.719,2.719,0,0,0,16988.291,9756.233Z" transform="translate(-16980 -9754.6)" fill="#101010"/>
    <path id="circle" d="M6,11.4A5.4,5.4,0,1,1,11.4,6,5.406,5.406,0,0,1,6,11.4Z" transform="translate(8 7)" fill="none" stroke="#101010" stroke-width="1.2"/>
    <path id="_0xf06d" data-name="0xf06d" d="M2.267-12.109a.561.561,0,0,0,.157.4l1.6,1.6a.5.5,0,0,0,.387.157.538.538,0,0,0,.4-.157L8.1-13.406a.543.543,0,0,0,.167-.4A.509.509,0,0,0,8.1-14.19a.561.561,0,0,0-.4-.157.526.526,0,0,0-.387.157l-2.9,2.906L3.208-12.5a.526.526,0,0,0-.387-.157.534.534,0,0,0-.392.162A.522.522,0,0,0,2.267-12.109Z" transform="translate(8.734 25.347)" stroke="#000" stroke-width="0.2"/>
  </g>
</svg>
