<svg xmlns="http://www.w3.org/2000/svg" width="21" height="21" viewBox="0 0 21 21">
  <path id="insta" d="M6.007,20A6.014,6.014,0,0,1,0,13.993V6.007A6.013,6.013,0,0,1,6.007,0h7.984A6.014,6.014,0,0,1,20,6.007v7.986A6.015,6.015,0,0,1,13.991,20ZM1.88,6.007v7.986a4.132,4.132,0,0,0,4.126,4.126h7.984a4.131,4.131,0,0,0,4.126-4.126V6.007a4.13,4.13,0,0,0-4.126-4.125H6.007A4.131,4.131,0,0,0,1.88,6.007ZM5.156,10a4.925,4.925,0,1,1,4.926,4.926A4.93,4.93,0,0,1,5.156,10Zm1.771,0a3.154,3.154,0,1,0,3.154-3.156A3.158,3.158,0,0,0,6.928,10Zm7.193-5.255a1.173,1.173,0,1,1,1.172,1.172A1.172,1.172,0,0,1,14.121,4.745Z" transform="translate(0.5 0.5)" fill="#101010" stroke="rgba(0,0,0,0)" stroke-width="1"/>
</svg>
