<svg xmlns="http://www.w3.org/2000/svg" width="314.63" height="142.599" viewBox="0 0 314.63 142.599">
  <g id="축하" transform="translate(-766.278 -331.972)">
    <path id="패스_29186" data-name="패스 29186" d="M926.941,20.048c-3.268-.833-6.2-3.012-10.553-9.97a17.3,17.3,0,0,0-5.447,9.4c3.952,4.732,6.686,7.226,12.117,9.73C923.32,25.576,924.4,23.573,926.941,20.048Z" transform="translate(-115.76 425.97)" fill="#3f54d1"/>
    <path id="패스_29190" data-name="패스 29190" d="M2.038,0C.326,3.925-.318,6.255.146,10.609A38.057,38.057,0,0,1,12.017,15.6,16.73,16.73,0,0,1,13.8,9.9C8.791,7.187,6.088,4.566,2.038,0Z" transform="matrix(0.309, -0.951, 0.951, 0.309, 1061.812, 436.161)" fill="#3f54d1"/>
    <path id="패스_29194" data-name="패스 29194" d="M20.664,4.035C16.211,5.439,11.186,5.014,1.007,0c-1.431,4.7-1.382,9.162.44,15.019C9.528,17.7,14.56,18.64,22.77,17.634,20.432,13.17,20.242,10.032,20.664,4.035Z" transform="matrix(0.719, -0.695, 0.695, 0.719, 766.278, 411.671)" fill="#5280e2"/>
    <path id="패스_29197" data-name="패스 29197" d="M861.185,86.652c3.442,3.845,5.653,7.9,7.682,13.869,9.172-9.272,15.785-15.01,24.318-20.079-.475-6.817-2.468-10.073-5.929-14.114C880.856,69.731,871.222,77.145,861.185,86.652Z" transform="translate(-44.6 266.582)" fill="#15cdcb"/>
    <path id="패스_29183" data-name="패스 29183" d="M0,0A43.124,43.124,0,0,0,3.171,14.732a17.252,17.252,0,0,0,7.247-5.608C8.6,6.487,8.358,4.012,8.326.129A9.7,9.7,0,0,1,0,0Z" transform="matrix(0.799, -0.602, 0.602, 0.799, 1011.098, 338.242)" fill="#4fe0b5"/>
    <path id="패스_29188" data-name="패스 29188" d="M786.328,73.852c5.409-2.2,8.286-4.377,12.169-9.751-6.276-3.734-9.223-7.084-11.461-11.675-5.23,1.675-8.455,3.679-13.066,7.368C779.245,63.821,782.286,67.57,786.328,73.852Z" transform="translate(90.863 310.138)" fill="#4fe0b5"/>
    <path id="패스_29200" data-name="패스 29200" d="M0,9.992c3.77,3.58,5.28,6.709,4.687,12.9,6.358-2.5,9.945-5.644,16.108-11.773.3-4.868-1.065-7.3-5.057-11.119C10.4,5.205,6.218,8.57,0,9.992Z" transform="matrix(-0.454, -0.891, 0.891, -0.454, 1020.556, 474.571)" fill="#15cdcb"/>
    <path id="패스_29201" data-name="패스 29201" d="M4.054,0A5.588,5.588,0,0,1,0,2.293,45.131,45.131,0,0,0,6.964,13.237,10.7,10.7,0,0,0,12,10.5C7.968,7.329,6.24,4.518,4.054,0Z" transform="translate(809.063 382.03) rotate(17)" fill="#3f54d1"/>
    <path id="패스_29195" data-name="패스 29195" d="M728.923,31.06c6.6,2.006,10.845,2.151,18.4.119-2.971-8.087-3.177-13.347-1.816-19.221C739.469,9.611,735.024,9.043,728.062,9,729.9,16.609,729.893,22.3,728.923,31.06Z" transform="translate(697.649 1044.191) rotate(-67)" fill="#3f54d1"/>
  </g>
</svg>
